<?xml version="1.0" encoding="UTF-8" standalone="no"?>
<!-- Created with Inkscape (http://www.inkscape.org/) -->

<svg
   width="789.77301"
   height="483.95901"
   viewBox="0 0 208.96077 128.04749"
   version="1.1"
   id="svg15698"
   inkscape:version="1.2 (1:1.2.1+202207142221+cd75a1ee6d)"
   sodipodi:docname="REV2.svg"
   inkscape:export-filename="REV2.png"
   inkscape:export-xdpi="96"
   inkscape:export-ydpi="96"
   xmlns:inkscape="http://www.inkscape.org/namespaces/inkscape"
   xmlns:sodipodi="http://sodipodi.sourceforge.net/DTD/sodipodi-0.dtd"
   xmlns:xlink="http://www.w3.org/1999/xlink"
   xmlns="http://www.w3.org/2000/svg"
   xmlns:svg="http://www.w3.org/2000/svg">
  <sodipodi:namedview
     id="namedview15700"
     pagecolor="#ffffff"
     bordercolor="#000000"
     borderopacity="0.25"
     inkscape:showpageshadow="2"
     inkscape:pageopacity="0.0"
     inkscape:pagecheckerboard="0"
     inkscape:deskcolor="#d1d1d1"
     inkscape:document-units="mm"
     showgrid="false"
     inkscape:zoom="1.5021831"
     inkscape:cx="395.09165"
     inkscape:cy="251.96662"
     inkscape:window-width="1848"
     inkscape:window-height="1016"
     inkscape:window-x="72"
     inkscape:window-y="27"
     inkscape:window-maximized="1"
     inkscape:current-layer="layer4">
    <inkscape:grid
       type="xygrid"
       id="grid17116" />
  </sodipodi:namedview>
  <defs
     id="defs15695">
    <rect
       x="39.126669"
       y="167.84593"
       width="53.863684"
       height="37.380004"
       id="rect2022" />
    <linearGradient
       id="linearGradient1188"
       inkscape:swatch="solid">
      <stop
         style="stop-color:#fffffb;stop-opacity:1;"
         offset="0"
         id="stop1186" />
    </linearGradient>
    <rect
       x="54.832106"
       y="145.33391"
       width="51.080108"
       height="56.942512"
       id="rect29724" />
    <rect
       x="54.720314"
       y="178.11096"
       width="44.898575"
       height="60.040379"
       id="rect29224" />
    <rect
       x="73.464352"
       y="191.31313"
       width="47.73539"
       height="40.727356"
       id="rect29052" />
    <linearGradient
       id="linearGradient28298"
       inkscape:swatch="solid">
      <stop
         style="stop-color:#000000;stop-opacity:1;"
         offset="0"
         id="stop28296" />
    </linearGradient>
    <linearGradient
       id="linearGradient21965"
       inkscape:swatch="solid">
      <stop
         style="stop-color:#000000;stop-opacity:0.66277498;"
         offset="0"
         id="stop21963" />
    </linearGradient>
    <inkscape:path-effect
       effect="bspline"
       id="path-effect20619"
       is_visible="true"
       lpeversion="1"
       weight="33.333333"
       steps="2"
       helper_size="0"
       apply_no_weight="true"
       apply_with_weight="true"
       only_selected="false" />
    <inkscape:path-effect
       effect="bspline"
       id="path-effect20615"
       is_visible="true"
       lpeversion="1"
       weight="33.333333"
       steps="2"
       helper_size="0"
       apply_no_weight="true"
       apply_with_weight="true"
       only_selected="false" />
    <linearGradient
       id="linearGradient20127"
       inkscape:swatch="solid">
      <stop
         style="stop-color:#000000;stop-opacity:1;"
         offset="0"
         id="stop20125" />
    </linearGradient>
    <inkscape:path-effect
       effect="bspline"
       id="path-effect19643"
       is_visible="true"
       lpeversion="1"
       weight="33.333333"
       steps="2"
       helper_size="0"
       apply_no_weight="true"
       apply_with_weight="true"
       only_selected="false" />
    <rect
       x="30.317967"
       y="224.05894"
       width="51.675544"
       height="58.499231"
       id="rect19619" />
    <rect
       x="551.15846"
       y="408.76435"
       width="138.36249"
       height="36.601322"
       id="rect19478" />
    <rect
       x="516.71323"
       y="290.24654"
       width="154.17042"
       height="56.162746"
       id="rect19472" />
    <rect
       x="569.86901"
       y="223.3934"
       width="133.05449"
       height="59.423527"
       id="rect19466" />
    <rect
       x="561.1831"
       y="110.2936"
       width="121.97833"
       height="117.29562"
       id="rect19460" />
    <rect
       x="331.46096"
       y="71.261446"
       width="179.8192"
       height="68.720235"
       id="rect19454" />
    <rect
       x="144.73499"
       y="78.71186"
       width="172.94668"
       height="75.591007"
       id="rect19448" />
    <inkscape:path-effect
       effect="bspline"
       id="path-effect19438"
       is_visible="true"
       lpeversion="1"
       weight="33.333333"
       steps="2"
       helper_size="0"
       apply_no_weight="true"
       apply_with_weight="true"
       only_selected="false" />
    <inkscape:path-effect
       effect="bspline"
       id="path-effect19434"
       is_visible="true"
       lpeversion="1"
       weight="33.333333"
       steps="2"
       helper_size="0"
       apply_no_weight="true"
       apply_with_weight="true"
       only_selected="false" />
    <inkscape:path-effect
       effect="bspline"
       id="path-effect19430"
       is_visible="true"
       lpeversion="1"
       weight="33.333333"
       steps="2"
       helper_size="0"
       apply_no_weight="true"
       apply_with_weight="true"
       only_selected="false" />
    <rect
       x="326.44566"
       y="356.63864"
       width="84.686872"
       height="24.145473"
       id="rect18842" />
    <rect
       x="327.81808"
       y="340.03714"
       width="91.996861"
       height="36.920654"
       id="rect18836" />
    <rect
       x="330.67627"
       y="337.08594"
       width="63.783761"
       height="23.057617"
       id="rect18830" />
    <rect
       x="316.116"
       y="311.44849"
       width="110.06362"
       height="44.695278"
       id="rect18772" />
    <inkscape:path-effect
       effect="bspline"
       id="path-effect18136"
       is_visible="true"
       lpeversion="1"
       weight="33.333333"
       steps="2"
       helper_size="0"
       apply_no_weight="true"
       apply_with_weight="true"
       only_selected="false" />
    <inkscape:path-effect
       effect="bspline"
       id="path-effect17172"
       is_visible="true"
       lpeversion="1"
       weight="33.333333"
       steps="2"
       helper_size="0"
       apply_no_weight="true"
       apply_with_weight="true"
       only_selected="false" />
    <inkscape:path-effect
       effect="bspline"
       id="path-effect17168"
       is_visible="true"
       lpeversion="1"
       weight="33.333333"
       steps="2"
       helper_size="0"
       apply_no_weight="true"
       apply_with_weight="true"
       only_selected="false" />
    <inkscape:path-effect
       effect="bspline"
       id="path-effect17164"
       is_visible="true"
       lpeversion="1"
       weight="33.333333"
       steps="2"
       helper_size="0"
       apply_no_weight="true"
       apply_with_weight="true"
       only_selected="false" />
    <inkscape:path-effect
       effect="bspline"
       id="path-effect17160"
       is_visible="true"
       lpeversion="1"
       weight="33.333333"
       steps="2"
       helper_size="0"
       apply_no_weight="true"
       apply_with_weight="true"
       only_selected="false" />
    <inkscape:path-effect
       effect="bspline"
       id="path-effect17156"
       is_visible="true"
       lpeversion="1"
       weight="33.333333"
       steps="2"
       helper_size="0"
       apply_no_weight="true"
       apply_with_weight="true"
       only_selected="false" />
    <inkscape:path-effect
       effect="bspline"
       id="path-effect17152"
       is_visible="true"
       lpeversion="1"
       weight="33.333333"
       steps="2"
       helper_size="0"
       apply_no_weight="true"
       apply_with_weight="true"
       only_selected="false" />
    <inkscape:path-effect
       effect="bspline"
       id="path-effect17148"
       is_visible="true"
       lpeversion="1"
       weight="33.333333"
       steps="2"
       helper_size="0"
       apply_no_weight="true"
       apply_with_weight="true"
       only_selected="false" />
    <inkscape:path-effect
       effect="bspline"
       id="path-effect17144"
       is_visible="true"
       lpeversion="1"
       weight="33.333333"
       steps="2"
       helper_size="0"
       apply_no_weight="true"
       apply_with_weight="true"
       only_selected="false" />
    <inkscape:path-effect
       effect="bspline"
       id="path-effect17140"
       is_visible="true"
       lpeversion="1"
       weight="33.333333"
       steps="2"
       helper_size="0"
       apply_no_weight="true"
       apply_with_weight="true"
       only_selected="false" />
    <inkscape:path-effect
       effect="bspline"
       id="path-effect17136"
       is_visible="true"
       lpeversion="1"
       weight="33.333333"
       steps="2"
       helper_size="0"
       apply_no_weight="true"
       apply_with_weight="true"
       only_selected="false" />
    <inkscape:path-effect
       effect="bspline"
       id="path-effect17128"
       is_visible="true"
       lpeversion="1"
       weight="33.333333"
       steps="2"
       helper_size="0"
       apply_no_weight="true"
       apply_with_weight="true"
       only_selected="false" />
    <inkscape:path-effect
       effect="bspline"
       id="path-effect17124"
       is_visible="true"
       lpeversion="1"
       weight="33.333333"
       steps="2"
       helper_size="0"
       apply_no_weight="true"
       apply_with_weight="true"
       only_selected="false" />
    <inkscape:path-effect
       effect="bspline"
       id="path-effect17120"
       is_visible="true"
       lpeversion="1"
       weight="33.333333"
       steps="2"
       helper_size="0"
       apply_no_weight="true"
       apply_with_weight="true"
       only_selected="false" />
    <linearGradient
       id="linearGradient16832"
       inkscape:swatch="solid">
      <stop
         style="stop-color:#000000;stop-opacity:1;"
         offset="0"
         id="stop16830" />
    </linearGradient>
    <linearGradient
       id="linearGradient16186"
       inkscape:swatch="solid">
      <stop
         style="stop-color:#000000;stop-opacity:1;"
         offset="0"
         id="stop16184" />
    </linearGradient>
    <clipPath
       clipPathUnits="userSpaceOnUse"
       id="clipPath16281">
      <path
         id="path16283"
         style="font-variation-settings:normal;opacity:1;vector-effect:none;fill:#000000;fill-opacity:1;stroke-width:1.065;stroke-linecap:butt;stroke-linejoin:miter;stroke-miterlimit:4.6;stroke-dasharray:none;stroke-dashoffset:0;stroke-opacity:1;-inkscape-stroke:none;stop-color:#000000;stop-opacity:1"
         d="M 12.879317,42.018106 V 176.05024 H 185.60004 v -4.87619 l -4.0659,-5.3e-4 c 9e-5,-0.038 5.3e-4,-0.0757 5.3e-4,-0.11369 0.003,-0.17012 0.0163,-0.31278 -0.004,-0.4811 -0.0155,-0.35319 0.002,-0.61933 0.0424,-0.87644 -0.27352,-0.82556 -0.40543,-1.26306 -0.38189,-2.03398 -0.001,-0.21506 -0.004,-0.42991 0.002,-0.64492 0.006,-0.40224 -0.0452,-0.80313 -0.005,-1.20561 0.0131,-0.0783 0.0106,-0.0653 0.0212,-0.12971 -0.29864,-0.65483 -0.28645,-0.53182 -0.31626,-1.53789 -0.003,-0.1313 -0.001,-0.25372 0.002,-0.37569 -0.36386,-0.86619 -0.35416,-1.60456 -0.33486,-2.51354 -0.009,-0.62071 -0.0721,-1.24839 0.046,-1.86294 -0.24702,-0.57023 -0.43512,-1.16561 -0.40876,-1.79989 -0.01,-0.39732 -0.006,-0.77912 0.0331,-1.17512 0.004,-0.042 0.005,-0.11818 0.007,-0.18448 -0.11956,-0.3646 -0.14426,-0.70168 -0.31678,-1.45935 -0.0298,-0.13095 0.16503,0.51108 0.13023,0.38138 -0.0595,-0.22187 -0.14674,-0.43501 -0.22014,-0.65268 -0.0675,-0.38018 -0.13511,-0.76032 -0.20257,-1.1405 h -5.3e-4 c -0.0671,0.005 -0.023,-0.13219 -0.0346,-0.19843 0.0117,0.0661 0.0234,0.13229 0.0351,0.19843 0.0661,-0.006 0.0101,-0.13581 -0.004,-0.20102 -0.18442,-0.8438 -0.52895,-1.68401 -0.46715,-2.56573 0,-0.75025 -0.003,-1.50026 0.002,-2.25051 0.004,-0.93438 -0.0166,-1.86859 -0.0176,-2.80293 0.0304,-0.89196 0.2046,-1.7669 -0.0667,-2.63447 -0.06,-0.44191 -0.12692,-0.88319 -0.17983,-1.32601 -0.003,-0.0252 0.004,0.0733 0.0295,0.0703 0.0293,-0.003 0.0489,-0.0493 0.0419,-0.078 -0.22606,-0.98069 -0.61851,-1.95438 -0.51108,-2.98639 -0.004,-1.19554 -0.003,-2.39056 0.0269,-3.58582 -0.0315,-1.57693 -0.4092,-3.32979 0.32506,-4.82038 0.007,-0.54271 0.0173,-1.08506 0.0222,-1.62781 0.002,-0.15287 0.002,-0.30602 0.002,-0.45889 0.007,-0.59672 -0.0979,-1.17635 -0.1111,-1.77508 -0.0208,-0.94315 0.0566,-1.90171 0.30954,-2.81275 0.31305,-1.17141 0.0337,-2.42788 0.12351,-3.62872 0.007,-0.93364 0.0608,-1.87135 -0.0258,-2.80241 -0.0473,-1.27351 -0.0343,-2.49579 0.0997,-3.7698 0.0305,-0.28949 0.16643,-0.5622 0.19223,-0.85214 0.0281,-0.31979 0.0179,-0.64181 0.0269,-0.96273 0.12189,-0.45061 0.24785,-0.90016 0.36949,-1.35083 -0.003,-0.0597 -0.003,-0.1166 0.002,-0.15244 0.008,-0.0499 0.0292,-0.12646 0.0543,-0.20619 -0.0164,-0.3484 -0.059,-0.70068 -0.0207,-1.04128 0.0123,-0.93934 0.0751,-1.88281 -0.031,-2.81895 -0.0534,-0.9106 -0.0427,-1.70949 0.1049,-2.61638 0.0879,-0.54006 0.22991,-0.85628 0.28061,-1.41851 0.0239,-0.26475 0,-0.53155 0,-0.79737 v -9.679512 h 4.30775 c -0.003,-0.638849 0.007,-1.277506 0.0548,-1.914612 0.0912,-1.681697 -0.26333,-3.328165 -0.28112,-5.005898 0.383,0.149172 0.0603,0.06069 -0.13539,-0.660424 -0.25153,-0.926563 -0.32001,-1.427718 -0.34261,-2.287715 -0.005,-0.166848 -0.007,-0.333869 -0.0103,-0.500745 0.0406,-1.679265 0.35556,-3.376467 -0.0331,-5.03225 -0.2555,-1.370637 -0.52853,-2.675112 -0.58964,-4.075203 -0.004,-0.0894 0.0111,-0.287173 0.0284,-0.497644 -0.26816,-0.272883 -0.5084,-0.646091 -1.45366,-1.864487 -1.45873,-1.880219 -2.31713,-4.200977 -2.59365,-6.562389 -0.10737,-0.91703 -0.0987,-1.843762 -0.14831,-2.765724 0.0175,-2.028428 0.27373,-4.037957 0.21032,-6.063713 -0.0467,-1.370833 -0.0123,-2.742689 -0.0103,-4.113961 -0.003,-1.505522 -0.003,-3.011009 -0.003,-4.51652 -0.19001,2.65e-4 -0.38003,0.0011 -0.56999,-0.0036 -0.31833,0.01519 -0.63436,0.02408 -0.94981,0.01913 -0.27526,0.07465 -0.62161,0.171032 -1.15962,0.334346 -1.43977,-2.1e-5 -2.87989,0.01553 -4.31964,0 -1.12197,-0.03292 -2.23617,0.008 -3.35638,0.08837 -1.36913,-0.02495 -0.94892,0.03162 -2.66547,-0.310574 -0.062,-0.01236 -0.21827,-0.03805 -0.17157,-0.08062 0.0771,-0.07031 0.31507,0.05876 0.31006,-0.04547 -0.0116,-0.255847 -0.87035,0.37469 -0.76843,0 h -1.9513 c -1.21394,0 -2.42769,-1.1e-5 -3.64164,0 -0.39887,0 -0.79794,-2.9e-5 -1.19682,0 -0.53615,2.64e-4 -1.07253,-1.72e-4 -1.60869,-5.29e-4 -1.04832,-8e-6 -2.0962,0.0042 -3.14451,5.29e-4 -0.71641,-0.006 -1.43141,-0.03701 -2.14457,0.0217 -0.44313,-0.01511 -0.38254,-0.0034 -0.84233,-0.05994 -0.004,-5.29e-4 -0.0118,-0.0016 -0.016,-0.0021 -0.0573,0.03201 -0.0746,0.03802 -0.0114,-0.0011 -0.0104,-0.0011 -0.0233,-0.0028 -0.0357,-0.0041 -1.22725,0.42318 -1.83472,0.423648 -3.10523,0.394806 h -4.30594 -2.86339 -2.58848 c -0.98745,0 -1.97463,-8e-6 -2.96209,0 -0.48017,-2.4e-5 -0.96057,-4e-5 -1.44074,0 -1.30566,2.65e-4 -2.61144,1.3e-5 -3.91707,0 -2.49579,1.35e-4 -4.99164,0.0032 -7.4874,-5.29e-4 -2.09865,-0.0122 -4.1972,-2.3e-4 -6.29574,0.02222 -0.99456,-0.0058 -1.99439,-0.09172 -2.97501,-0.10387 -1.06733,0.256757 -2.11227,0.450998 -3.21789,0.38499 -0.27357,-0.01633 -0.54735,-0.02957 -0.82114,-0.04082 -0.15812,-0.0066 -0.32103,0.02609 -0.47439,-0.01291 -0.0477,-0.01212 -0.0503,-0.0843 -0.0754,-0.126609 -1.44241,0.521566 -2.65872,0.652114 -4.15013,0.576194 -2.18701,-0.01577 -4.373875,0.008 -6.560844,0.02222 -3.702725,-7.94e-4 -7.404428,-0.133924 -11.10733,-0.117303 -1.166347,0.27028 -1.260988,0.327147 -2.643251,0.444934 -0.900237,0.07671 -1.813552,0.0013 -2.721798,-0.01497 7.605768,4.675973 15.377396,9.087151 23.224943,13.338722 3.97779,2.15505 7.99146,4.244311 11.97859,6.382039 5.30283,2.606553 10.2426,5.849265 15.13965,9.133292 0.98557,0.660937 1.97213,1.320453 2.95951,1.978692 0.1535,0.10233 0.40532,0.187052 0.64492,0.273883 l 0.0398,-0.04754 0.0915,0.09612 c 0.30944,0.119475 0.54905,0.250933 0.42529,0.445966 l 0.98134,1.029911 c -1.55217,1.50866 -2.8281,3.367382 -4.65656,4.525823 -0.41073,0.260225 -0.81138,-0.535409 -1.21595,-0.80512 -0.99316,-0.662096 -1.98615,-1.325157 -2.97708,-1.990574 -4.71093,-3.163467 -9.4598,-6.291945 -14.56965,-8.789646 -4.00793,-2.148991 -8.04237,-4.248679 -12.04061,-6.41563 C 90.740505,60.384513 80.340213,54.392557 70.2877,47.868327 69.667998,47.459112 69.045487,47.05387 68.423729,46.64773 c -0.02058,-0.0035 -0.04087,-0.009 -0.06149,-0.01241 -2.183522,-0.358746 -0.792398,-0.07337 -3.36672,-0.532784 -0.190344,-0.03397 -0.376891,-0.08645 -0.565338,-0.129706 -0.519221,-0.05452 -1.036021,-0.138978 -1.557528,-0.163299 -2.209919,-0.103058 -4.432488,0.05708 -6.644558,0 -1.167535,-6.6e-5 -2.335083,-2.64e-4 -3.502628,0 -0.138314,-7.1e-5 -0.276641,1.17e-4 -0.414962,0 1.924182,1.041469 2.786012,1.489414 6.190837,3.231327 0.830146,0.389451 1.35504,0.800312 2.239656,0.811321 0.112249,0.0013 -0.427657,-0.127042 -0.315741,-0.11834 0.686528,0.05339 1.36997,0.14822 2.050521,0.253217 1.197777,0.184788 1.981732,0.460558 3.199286,0.807186 1.013897,0.375753 2.100255,0.670475 3.189986,0.703315 0.137319,0.0041 0.277913,-0.01138 0.408763,-0.05323 0.0098,-0.0031 0.01132,-0.0049 0.0098,-0.0067 l 1.649513,0.07441 c 0.913215,0.222695 1.611683,0.719162 2.328024,1.283642 l -4.08709,5.05292 c 0.117493,0.03597 0.278474,0.0999 0.449069,0.172085 0.296622,-0.03651 1.165106,-0.225999 0.889868,-0.109556 -0.320538,0.135615 -0.683242,0.144553 -1.030428,0.168984 -1.917975,0.134985 -3.854431,-0.293449 -5.657535,-0.910023 -2.01136,-0.598477 -0.753266,-0.26487 -2.358514,-0.621149 -0.25925,-0.05754 -0.511644,-0.152795 -0.775664,-0.181386 -0.51041,-0.05528 -1.032946,0.02074 -1.538406,-0.06925 -1.701906,-0.302954 -2.175449,-0.639964 -3.675745,-1.347722 -4.592243,-2.3515 -3.761007,-1.890059 -8.617561,-4.541842 -2.852836,-1.5577 -5.70121,-2.993507 -8.309571,-4.864818 -1.157203,-0.155736 -2.341663,-0.148507 -3.503144,-0.04703 -1.159486,0.06575 -2.174171,0.03005 -3.334681,-0.166915 -0.140097,-0.02379 -0.271793,-0.08313 -0.407728,-0.124539 -0.01984,-0.03166 -0.02302,-0.08627 -0.05943,-0.09457 -0.115292,-0.02643 -0.236725,0 -0.355015,0 H 27.00764 24.668765 20.132091 v -3.09276 z M 179.87171,109.78658 c 0.002,0.0408 0.005,0.0818 0.006,0.12247 0.0354,-0.13453 0.0731,-0.26853 0.10645,-0.40359 0.029,-0.11758 -0.0527,0.0898 -0.11265,0.28112 z m 0.006,0.12247 c -0.0207,0.0787 -0.0413,0.15755 -0.0625,0.23616 0.006,0.14109 0.0276,0.29553 0.0403,0.21084 0.0221,-0.14679 0.0256,-0.29644 0.0222,-0.447 z m -0.85835,-67.890944 c -0.0267,0.336582 0.0162,0.668301 0.10904,0.485243 0.0315,-0.06211 0.051,-0.108889 0.0765,-0.163298 -3e-5,-0.107315 2e-5,-0.214627 0,-0.321945 z m 0.18552,2.209168 c -0.30029,0.324088 -0.47411,0.554688 -0.56792,0.712102 0.1608,-0.10151 0.36319,-0.237733 0.56792,-0.375687 6e-5,-0.112141 -4e-5,-0.224277 0,-0.336415 z M 132.07308,81.7578 c -0.40876,0.302374 -0.81221,0.609341 -1.1958,0.935345 0.0286,0.128003 0.0572,0.256468 0.0858,0.384471 z m 48.61357,77.82522 c 0.005,0.0188 0.01,0.0368 0.0165,0.0563 0.0636,0.17773 0.33661,0.67634 0.25322,0.50695 -0.0911,-0.18507 -0.18278,-0.37315 -0.26976,-0.56328 z m 0.37103,2.73627 c 0.003,-0.0134 -0.006,0.0267 -0.007,0.0403 -2.7e-4,0.003 -2.4e-4,0.003 -5.3e-4,0.006 0.003,-0.0161 0.005,-0.0302 0.008,-0.0465 z m 0.47284,2.41587 c 0.008,0.024 0.0132,0.0376 0.0212,0.0625 0.20582,0.20998 0.79111,0.86726 0.61753,0.62994 -0.18412,-0.25172 -0.41957,-0.467 -0.63872,-0.69247 z m -0.23203,1.15291 c 0.0137,0.2135 0.0461,0.42549 0.11576,0.5736 0.0832,0.17682 0.1969,0.33582 0.31523,0.49248 -0.17796,-0.46227 -0.32377,-0.82107 -0.43099,-1.06608 z m 0.54416,2.66082 c -0.0124,0.0343 -0.0843,0.30251 -0.14986,0.58859 0.0398,-0.15706 0.0851,-0.32708 0.1359,-0.52555 0.0149,-0.0582 0.0186,-0.0759 0.014,-0.063 z m -0.25735,1.19165 c -0.017,0.18084 -0.002,0.29444 0.0801,0.24082 -0.004,-0.0126 -0.009,-0.0252 -0.0134,-0.0377 -0.0257,-0.0774 -0.0431,-0.13219 -0.0667,-0.20309 z" />
    </clipPath>
    <clipPath
       clipPathUnits="userSpaceOnUse"
       id="clipPath19004">
      <path
         id="path19006"
         style="font-variation-settings:normal;opacity:1;vector-effect:none;fill:#000000;fill-opacity:1;stroke-width:1.065;stroke-linecap:butt;stroke-linejoin:miter;stroke-miterlimit:4.6;stroke-dasharray:none;stroke-dashoffset:0;stroke-opacity:1;-inkscape-stroke:none;stop-color:#000000;stop-opacity:1"
         d="m 34.32974,32.881205 v 62.618936 h 130.85435 v -1.240695 c -0.24397,-0.05719 -0.49351,-0.0808 -0.75986,-0.01968 v -0.754944 c -0.0132,-0.01115 -0.0382,-0.02397 -0.0487,-0.03467 l -0.18744,0.201576 c -0.1011,-0.09548 -0.12614,-0.100602 -0.0408,-0.06163 -0.12396,-0.09944 -0.24785,-0.198864 -0.37181,-0.298298 0.0417,-0.07631 0.0859,-0.151231 0.12818,-0.227251 h -0.69709 -1.36828 V 90.87932 c -0.0279,-0.0056 -0.0403,-0.0082 -0.0702,-0.01413 l 0.0619,-0.313275 c -0.17893,0.01667 -0.31126,0.04293 -0.65802,0.09287 l -0.70104,-4.872051 c -0.0557,-0.03614 -0.11368,-0.0698 -0.16901,-0.106566 -0.15026,-0.105503 -0.30218,-0.209242 -0.45346,-0.313277 -0.22186,-2.19e-4 -0.44361,-4.38e-4 -0.66548,0 -0.78608,0.0024 -1.57261,0.007 -2.3586,-0.0081 -0.67887,-0.0044 -1.36122,0.110983 -2.03376,-0.03766 -0.11316,-0.02106 -0.23056,-0.02567 -0.33933,-0.06334 -0.11009,-0.03812 0.96441,-0.09344 0.30816,-0.163487 -0.19463,-0.02787 -1.48531,0.583453 -1.7177,0.635113 l -1.97187,-4.951651 c 0.5463,-0.229421 1.02003,-0.425744 1.49865,-0.574342 l -0.4337,-3.903545 c 0.86704,-0.09634 1.15982,-0.146687 1.59215,-0.147224 0.33636,-4.38e-4 0.7577,0.02921 1.59962,0.09073 0.42689,0.0312 0.85783,0.06541 1.27259,0.171189 0.40079,0.102252 0.79194,0.222191 1.17644,0.353934 -1.36953,-1.892278 -0.99889,-3.424728 -0.21158,-5.329982 0.37273,-0.770614 0.4036,-1.077 1.03158,-1.927591 0.92982,-1.259192 0.33374,-0.07742 0.70938,-0.879485 0.35837,-0.441911 0.61887,-1.452532 0.94072,-1.617742 0.55948,-0.287199 0.95817,-0.497024 1.27785,-0.65266 0.034,-0.02492 0.0677,-0.05065 0.10229,-0.07447 -0.0277,-0.04607 -0.0972,-0.15871 -0.1058,-0.172473 -0.26354,-0.435383 -0.38815,-0.8811 -0.43634,-1.336559 -0.19381,-0.449652 -0.34167,-0.914514 -0.51579,-1.407178 -0.054,-0.2477 -0.0767,-0.504183 -0.16198,-0.742963 -0.032,-0.0896 -0.13237,-0.138498 -0.18217,-0.219549 -0.10137,-0.164899 -0.19914,-0.334436 -0.26909,-0.514853 -0.18053,-0.464491 -0.61736,-1.69093 -0.67558,-2.310628 -0.0494,-0.525962 -0.0244,-1.056218 -0.0364,-1.584358 -0.0185,-0.61264 0.19643,-1.216925 0.21422,-1.826591 2.2e-4,-0.0093 -0.016,-0.0063 -0.025,-0.0094 -0.004,-0.01992 -0.0173,-0.04033 -0.0118,-0.05992 0.18297,-0.661257 0.38324,-1.317197 0.57504,-1.975954 0.59502,-0.841783 0.41342,-0.406963 0.53643,-0.860226 0.0112,-0.04097 0.0612,-0.156589 0.036,-0.1224 -0.076,0.103214 -0.10574,0.238077 -0.19094,0.333818 -0.0185,0.02069 -0.0409,-0.04505 -0.0404,-0.07276 0.007,-0.424892 0.0415,-0.848788 0.0623,-1.273222 0.0687,-0.267608 0.16107,-0.529783 0.20587,-0.80245 0.0108,-0.06591 -0.0385,-0.129765 -0.0426,-0.196439 -0.008,-0.138691 -0.007,-0.278275 0.007,-0.416418 0.0394,-0.372155 0.0908,-0.743518 0.15452,-1.112303 0.16377,-0.948824 0.16787,-0.378176 0.14266,-0.927418 -0.004,-0.05774 -0.0193,-0.115872 -0.0123,-0.17333 0.10928,-0.887915 0.11376,-1.023529 0.38673,-1.763679 0.0721,-0.195354 0.15865,-0.38502 0.24055,-0.57648 0.0526,-0.123 0.27358,-0.291242 0.16286,-0.366344 -0.10988,-0.07455 -0.11863,0.236525 -0.17822,0.355217 -0.01,0.03147 -0.0325,0.127248 -0.0285,0.09458 0.26207,-2.28344 -0.0463,-0.290145 0.48858,-2.022174 0.0479,-0.155265 -0.1361,0.295792 -0.21729,0.436532 -0.006,0.0098 -0.0184,-0.01832 -0.0154,-0.0291 0.16515,-0.547168 0.34539,-1.089698 0.51843,-1.63443 0.79293,-1.25049 0.43091,-0.766599 0.18612,-0.1943 0.004,-4.38e-4 0.007,-0.0028 0.0105,-0.0026 0.57272,0.02885 1.15573,0.03829 1.73789,0.05392 -0.14692,-0.350828 -0.28464,-0.705896 -0.41132,-1.066081 -0.17808,-0.528486 -0.37227,-1.052155 -0.53598,-1.585212 -0.17505,-0.126567 -0.34939,-0.272854 -0.52414,-0.440815 l -0.54784,-0.56792 c 0.0559,0.03028 0.12044,0.132832 0.16813,0.09073 0.0465,-0.04098 -0.0289,-0.136239 -0.0821,-0.16691 -0.26269,-0.149693 -0.55937,-0.230755 -0.83492,-0.355217 -1.29621,-0.585477 -0.97634,-0.429872 -2.01094,-1.030131 -0.0819,-0.0618 -0.15096,-0.11353 -0.22168,-0.166483 -0.43289,-0.02903 -0.81327,-0.0533 -1.35248,-0.08773 -3.42489,-0.235233 -6.8548,-0.554409 -10.28382,-0.729696 -1.24451,-0.06363 -2.49718,0.04419 -3.74268,0 h -5.41869 c -1.06336,-3.5e-5 -2.12783,-3.7e-5 -3.19133,0 -0.62929,9e-6 -1.25818,9e-6 -1.88758,0 -0.945,1.76e-4 -1.89035,0.0013 -2.83533,0 -1.69932,-8.76e-4 -3.39895,0.0023 -5.09823,0.0039 -1.60798,-0.0048 -3.21821,-0.05566 -4.82476,0.02311 -0.45833,0.01762 -0.93515,0.04978 -1.39593,0.02354 -1.41848,-0.08183 -2.81776,-0.431599 -4.25014,-0.283319 -0.7244,-0.02641 -1.45041,-0.03433 -2.17379,-0.07917 -0.74957,-0.04646 -1.49051,-0.191154 -2.24008,-0.237952 -1.06417,-0.06644 -2.14347,-0.01413 -3.19397,-0.252076 -0.37456,-0.04664 -0.74747,-0.110111 -1.12377,-0.139949 -1.07273,-0.08505 -2.1639,0.0797 -3.2383,-0.0094 -0.69485,-0.0091 -1.39162,-0.02097 -2.08644,0.0043 -0.66949,0.02463 -0.75928,0.0743 -1.49602,0.0796 -0.226206,0.0015 -0.45219,-0.01972 -0.678212,-0.02953 -0.325653,-0.06442 -0.653414,-0.118074 -0.976716,-0.193443 -0.108309,-0.02524 -0.138404,-0.13354 -0.256359,-0.14979 -0.16904,-0.02331 -0.341651,-0.0015 -0.512283,0 -1.08029,0.01109 -1.072362,0.01665 -2.170282,0.05178 -1.186803,0.02937 -2.310129,0.06346 -3.491152,-0.0749 -0.695158,-0.08144 -0.676757,-0.172318 -1.384522,-0.239663 -0.175994,-0.01676 -0.353522,-4.38e-4 -0.530278,-8.77e-4 -2.163253,-0.0013 -4.326575,0.0041 -6.489777,0.0051 -1.767733,-0.0049 -3.541807,-0.07037 -5.306746,0.02824 -1.06687,0.04613 -2.095839,0.03978 -3.164557,-0.05136 -1.701373,-0.145092 -0.539471,-0.135477 -2.33358,-0.261919 -0.199004,-0.01402 -0.39882,0 -0.59832,0 -0.975741,-5e-6 -1.951806,-5e-6 -2.927511,0 -1.253812,-1.3e-5 -2.507763,4.38e-4 -3.761561,4.38e-4 -1.606224,7.7e-5 -3.212375,-4.38e-4 -4.818606,-4.38e-4 -1.115057,1.95e-4 -2.229944,0.0044 -3.344976,-0.0022 -0.705367,-0.0039 -1.410238,0.01179 -2.115411,0.01797 -0.435089,-0.02038 -0.857617,-0.05564 -1.291018,-0.08602 -0.07256,-0.0051 -0.173189,0.0421 -0.217733,-0.01497 -0.03418,-0.04413 0.159855,-0.142501 0.105354,-0.130533 -0.205909,0.04525 -0.391311,0.157591 -0.586907,0.23624 -0.414751,0.08703 -0.826992,0.188354 -1.244487,0.261065 -0.505852,0.08812 -1.053701,-0.06839 -1.563183,-0.0056 -0.922254,0.01341 -1.851366,0.06723 -2.76992,-0.03252 -1.248867,-0.06093 -0.02056,-0.0108 -1.441149,-0.03595 -0.214989,-0.0038 -0.431348,-0.0468 -0.644851,-0.02141 -0.69465,0.08297 -1.397801,0.485023 -2.181258,0.368912 -0.480437,8.77e-4 -0.964254,0.02534 -1.446417,0.02568 -0.08509,0.199325 -0.08731,0.176552 -0.06102,-4.38e-4 -0.341691,-0.0015 -0.682545,-0.01429 -1.020611,-0.06634 -0.02061,0.0064 -0.04131,0.0124 -0.0619,0.01882 0.237671,0.174919 0.459613,0.369155 0.659339,0.591459 0.231013,0.257189 -0.191154,0.438905 -0.678214,0.559788 l 0.02985,0.216556 v 4.39e-4 c 0.0088,0.01008 0.01,0.01895 0.0044,0.02696 l 0.02283,0.16306 c -0.480992,0.05957 -1.544552,0.157019 -1.951676,-0.20072 -0.266131,-0.06246 -0.520949,-0.15618 -0.732645,-0.294019 -0.06888,-0.02849 -0.135061,-0.06379 -0.202807,-0.09544 -0.106398,-0.0059 -0.161101,-0.03304 -0.199291,-0.09373 -0.455914,-0.234095 -0.892128,-0.524318 -1.335795,-0.80245 l 0.290598,-0.464778 c -0.229522,-0.126885 -0.453282,-0.266173 -0.661533,-0.389457 l 0.03205,-0.05435 c -0.04406,-0.02801 -0.07823,-0.04962 -0.132131,-0.08431 l 0.283577,-0.439529 c 0.02859,0.03889 0.05892,0.07652 0.09087,0.113413 l 0.03775,-0.06377 c 0.01827,0.0344 0.03694,0.06486 0.05531,0.09715 -0.0018,-0.0075 -0.004,-0.01626 -0.0057,-0.02354 -0.01344,-0.02997 -0.02694,-0.0599 -0.04039,-0.08987 l -0.0088,0.01499 c -0.02466,-0.04654 -0.04513,-0.09539 -0.06936,-0.142944 l -0.0597,0.0933 c -0.112155,-0.152797 -0.197645,-0.321611 -0.24363,-0.513569 -0.03999,-0.166912 -0.07018,-0.322749 -0.09394,-0.470769 -0.0265,-0.02558 -0.05286,-0.05114 -0.07901,-0.07704 l 0.04258,-0.0428 c -0.01544,-0.04621 -0.03288,-0.09457 -0.04434,-0.136525 z m 1.302873,1.365236 c 0.0092,0.02049 0.01803,0.04113 0.02722,0.06163 0.02117,0.03663 0.04242,0.07488 0.06365,0.111702 0.06462,0.05947 0.133122,0.116212 0.204561,0.171617 -0.02108,-0.06602 -0.02137,-0.144566 -0.01405,-0.227254 -0.07226,-0.0945 -0.149722,-0.192852 -0.233533,-0.29573 -0.0081,-0.0099 -0.01524,-0.01742 -0.02196,-0.02397 l -0.04873,0.08174 v 4.38e-4 c 0.0045,0.03384 0.01243,0.0745 0.02283,0.119832 z m 0.281381,0.117693 c 0.0942,0.123192 0.177783,0.238488 0.254166,0.347944 l 0.03512,-0.05521 c -0.05657,-0.08525 -0.111447,-0.167044 -0.163298,-0.243517 -0.04358,-0.03932 -0.08345,-0.07548 -0.119839,-0.109132 -0.0024,0.02005 -0.0044,0.04025 -0.0061,0.05991 z m 0.0061,-0.05991 c 0.0024,-0.01913 0.0045,-0.03807 0.007,-0.05735 -0.07682,-0.111389 -0.146613,-0.209996 -0.210707,-0.300437 l -0.04785,0.08089 c 0.06199,0.09319 0.141224,0.17488 0.251531,0.276901 z m 0.007,-0.05735 c 0.01025,0.01483 0.02171,0.03257 0.03248,0.04836 -0.0043,-0.0775 -0.0089,-0.155299 -0.01317,-0.232818 -0.0038,0.05979 -0.01117,0.122016 -0.01931,0.184455 z m 0.112816,0.166483 c 0.05871,0.05297 0.127139,0.115659 0.200611,0.1836 l 0.06058,-0.09715 c -0.108675,-0.05953 -0.217528,-0.119446 -0.32528,-0.180605 0.02146,0.03157 0.04241,0.06218 0.06409,0.09416 z m 0.445998,-0.410425 c 0.01778,0.03856 0.03696,0.07581 0.05443,0.114695 l 0.03161,-0.0505 c -1.4e-5,-0.01913 6.74e-4,-0.03632 8.99e-4,-0.05521 z m -0.248459,0.09843 c 0.04199,0.09336 0.0859,0.191193 0.130813,0.29145 l 0.08165,-0.130961 c -0.07197,-0.05228 -0.141815,-0.106752 -0.212462,-0.160489 z m 4.36295,1.209025 c -0.0011,-8.76e-4 -0.0058,-2.19e-4 -0.0145,0.0022 -0.08579,0.02434 -0.170917,0.05196 -0.256359,0.07789 0.01856,-2.19e-4 0.03761,0.004 0.05619,0.003 0.063,-0.0033 0.222266,-0.07765 0.214656,-0.08303 z m 121.710101,7.70609 c -0.0829,0.246861 -0.11448,0.470675 0.0171,0.53197 9e-4,1.27e-4 -10e-4,-1.77e-4 0.002,4.38e-4 -0.008,-0.144651 -0.0168,-0.28914 -0.0215,-0.433965 -9e-4,-0.02687 0.003,-0.06419 0.003,-0.09843 z m -50.03897,17.900416 c 0.0959,0.0011 0.19082,0.01343 0.28445,0.04793 0.0127,0.0046 0.0171,0.0064 0.0281,0.01028 0.0846,-0.0039 0.16902,-2.19e-4 0.25504,0.01328 0.064,0.0095 0.12822,0.01722 0.19183,0.02867 0.0239,0.0043 0.0465,0.01593 0.0707,0.01882 0.0675,0.0081 0.13598,0.0071 0.20368,0.01411 0.13667,0.01418 0.20332,0.06048 0.35688,0.04323 0.17638,0.03429 0.35638,0.07164 0.52809,0.124968 0.097,0.03012 0.19319,0.06238 0.28753,0.09972 0.0115,0.0045 0.0233,0.01 0.0338,0.0167 0.0488,0.01017 0.13765,0.03272 0.29455,0.07746 0.13167,0.03755 0.21105,0.101193 0.32264,0.150647 0.21429,0.0316 0.42408,0.107539 0.62554,0.178037 0.0688,0.02407 0.13828,0.0468 0.2072,0.07062 0.0273,-0.0048 0.0348,-0.01043 0.0707,-0.01499 0.0485,-0.0061 0.098,-0.0082 0.14706,-0.0081 h 4.5e-4 c 0.049,1.8e-5 0.0981,0.0018 0.14705,0.0034 0.36547,0.01232 0.46778,0.03706 0.83581,0.08859 0.14174,0.02388 0.28359,0.04539 0.42492,0.07147 0.12379,0.02284 0.24549,0.05687 0.37006,0.07532 0.23056,0.03412 0.41011,0.02369 0.6409,0.04665 0.26771,0.02662 0.26981,-0.04622 0.25987,0.05307 0.12365,4.39e-4 0.34074,-6.57e-4 0.43634,0.0124 0.089,0.01223 0.17666,0.02986 0.26338,0.05136 0.0869,-0.03615 0.19473,-0.08122 0.24319,-0.101427 h 4.4e-4 l 0.0795,0.199007 c 0.0256,0.009 0.0513,0.01836 0.0768,0.02782 0.21161,-0.03198 0.41579,-0.06601 0.71421,-0.114268 l 0.0667,0.377044 c 0.0714,-0.01374 0.14343,-0.02432 0.21465,-0.03894 l 0.0518,0.142942 c 0.0233,0.0045 0.0468,0.009 0.0702,0.01328 0.0331,0.006 0.13281,0.0038 0.10009,0.01155 -0.048,0.01144 -0.10921,-0.002 -0.16374,-0.006 l 0.17164,0.474194 0.38982,-0.273903 c -0.0706,0.276285 -0.0689,0.581518 -0.20852,0.830268 0.0638,0.01933 0.12757,0.03884 0.19184,0.05649 0.36587,0.100496 0.73244,0.197497 1.09392,0.312849 l -0.3683,1.050248 c -0.19667,-0.06224 -0.39614,-0.114501 -0.59481,-0.169478 -0.0593,0.318244 -0.55255,0.234165 -0.89771,0.06719 0.005,0.0049 0.01,0.0096 0.0145,0.01455 -0.30402,-0.151957 -0.59785,-0.320909 -0.88761,-0.49645 -0.25132,-0.03845 -0.5021,-0.0747 -0.67514,-0.100573 -0.24502,-0.04384 -0.4899,-0.08935 -0.73528,-0.131388 -4.5e-4,-7.2e-5 -6.7e-4,7.2e-5 -9e-4,0 -0.35851,0.01635 -0.71812,0.02205 -1.07811,0.01284 -0.0905,0.02758 -0.18152,0.0534 -0.27261,0.07875 -0.13267,0.02007 -0.26587,0.03388 -0.39946,0.04365 -0.0545,0.04573 -0.1107,0.08999 -0.21115,0.179748 l -0.13431,-0.163057 c -0.19455,0.0058 -0.38944,0.0067 -0.58385,0.0077 l -9e-4,-0.220834 c -0.5016,-0.0308 -0.87008,-0.06322 -1.42973,-0.109561 -0.0428,-0.0062 -0.0854,-0.01262 -0.12818,-0.01882 l 0.0193,-0.115979 c -6.87095,0.741407 0.0279,0.01433 -3.93056,0.430113 l 0.002,0.04579 c -0.008,-0.01492 -0.0163,-0.02876 -0.0246,-0.04322 -0.127,0.01335 -0.05,0.0051 -0.20061,0.02097 -0.47281,0.07235 -0.35131,0.08817 -0.0768,-0.461355 -0.44427,-0.636452 -0.60998,-0.558502 -0.0461,-0.641959 3.41091,-0.358372 2.17824,-0.231251 2.92707,-0.316702 -0.0116,-0.0029 -0.0182,-0.0047 -0.0303,-0.0077 -0.51048,-0.125868 -0.66448,-0.161848 -1.15274,-0.279039 -0.20267,-0.07101 -0.42532,-0.05636 -0.63124,-0.112986 -0.0784,-0.02156 -0.15196,-0.05795 -0.22783,-0.08688 l 0.52018,-0.987335 c -0.0289,-0.0058 -0.10626,-0.02044 -0.0869,-0.01755 0.16797,0.02729 0.58695,0.10659 0.69752,0.127109 0.051,0.01225 0.1258,0.03044 0.18437,0.04451 l -0.11194,-0.819141 c 0.0585,-0.0047 0.1163,-0.0083 0.17384,-0.0077 z m 2.24052,0.442954 c 0.0466,0.01757 0.0292,0.01118 0.004,0 -9e-4,8.3e-5 -0.003,-1.69e-4 -0.004,0 z m 5.9336,3.300531 c 0.008,0.01135 0.0168,0.02257 0.0259,0.03424 0.005,-0.0092 0.0107,-0.01803 0.0162,-0.02696 -0.0136,-0.0026 -0.0283,-0.0047 -0.0421,-0.0073 z m 0.49296,0.108704 -0.0931,0.270481 c 0.0711,-0.08059 0.15019,-0.155941 0.22914,-0.231534 -0.0452,-0.01369 -0.0908,-0.02573 -0.13608,-0.03895 z m 40.45927,1.669954 c -0.006,8.77e-4 -0.0103,-4.38e-4 -0.0163,8.77e-4 -0.20438,0.02558 -0.66568,0.484438 -0.49209,0.373621 0.17698,-0.113008 0.34107,-0.246127 0.50833,-0.374478 z m 0.35732,0.04151 c -0.074,0.07108 -0.11764,0.125511 -0.0527,0.08602 0.0256,-0.01549 0.0495,-0.03462 0.0746,-0.05093 -0.009,-0.01492 -0.0131,-0.02068 -0.022,-0.03509 z m 0.0738,6.70506 c 4.5e-4,8.76e-4 9e-4,0.002 0.002,0.0026 8.9e-4,0.0013 -0.002,-0.0041 -10e-4,-0.0026 z m 0.002,0.0026 c -0.0483,-0.06826 0.0879,0.177953 0.13082,0.265771 -0.0348,0.341855 -0.0422,0.244727 0.18042,0.335531 0.002,-0.02014 0.008,-0.0415 0.008,-0.0612 -0.10633,-0.180053 -0.20027,-0.367755 -0.3187,-0.540101 z" />
    </clipPath>
    <clipPath
       clipPathUnits="userSpaceOnUse"
       id="clipPath19184">
      <path
         id="path19186"
         style="font-variation-settings:normal;opacity:1;vector-effect:none;fill:#000000;fill-opacity:1;stroke-width:1.065;stroke-linecap:butt;stroke-linejoin:miter;stroke-miterlimit:4.6;stroke-dasharray:none;stroke-dashoffset:0;stroke-opacity:1;-inkscape-stroke:none;stop-color:#000000;stop-opacity:1"
         d="m 114.64158,63.987826 v 0.828889 h 1.13843 c -0.001,-7.94e-4 -0.003,-0.0016 -0.004,-0.0026 -0.004,-0.0033 -0.008,-0.0064 -0.0119,-0.0098 -7.9e-4,-7.94e-4 -0.002,-0.0021 -0.004,-0.0031 -0.009,-0.0026 -0.0182,-0.0052 -0.0274,-0.0078 -0.0116,-0.0068 -0.0225,-0.01389 -0.0341,-0.02066 -8e-4,-2.65e-4 -0.001,-7.94e-4 -0.002,-0.0011 -5.3e-4,-1.56e-4 -0.001,-7.94e-4 -0.002,-0.0011 -0.0157,-0.0044 -0.0241,-0.0081 -0.0341,-0.01601 -0.006,-0.0024 -0.0145,-0.0072 -0.0176,-0.01188 v -5.29e-4 c -0.01,-0.0028 -0.0173,-0.0048 -0.0108,-0.0052 -0.0315,-0.0021 -0.062,-0.0057 -0.0941,-0.01035 -0.0252,-0.0036 -0.0507,-0.0042 -0.0754,-0.01035 -0.0187,-0.0046 -0.0361,-0.01339 -0.0537,-0.02119 7.9e-4,-2.62e-4 0.003,-0.0013 0.003,-0.0016 0.004,1.72e-4 0.0117,0.0011 0.0145,0.0011 -0.0162,-0.0029 -0.0326,-0.0031 -0.0486,-0.0072 -0.0189,-0.0048 -0.037,-0.01273 -0.0553,-0.01963 -0.003,-0.0013 0.0133,0.0041 0.0104,0.0026 -0.0134,-0.0062 -0.0277,-0.01074 -0.0413,-0.01654 -0.001,-5.29e-4 0.003,5.29e-4 0.005,0.0011 -0.0351,-0.01783 -0.0533,-0.02635 -0.0909,-0.04909 -0.01,-0.0058 -0.0183,-0.01299 -0.0284,-0.0181 -0.0193,-0.0097 -0.0397,-0.01714 -0.0594,-0.02585 l 0.13126,-0.259931 c 0.0547,0.02281 0.10698,0.05262 0.15761,0.08372 0.01,0.0052 0.0195,0.01029 0.0295,0.01551 -0.002,-0.0013 -0.006,-0.0039 -0.01,-0.0057 0.0127,0.006 0.0248,0.01273 0.0377,0.0181 0.003,0.0011 0.005,0.0019 0.006,0.0021 -0.002,-0.0019 -0.0166,-0.0094 -0.0191,-0.01138 v -5.29e-4 c 0.0177,0.0038 0.0356,0.0089 0.0532,0.01344 0.0161,0.0081 0.0316,0.01749 0.0481,0.02479 0.004,0.0013 0.006,-0.0059 0.009,-0.0057 0.003,1.35e-4 0.005,2.54e-4 0.008,5.29e-4 l 0.0264,-0.04651 c 0.0163,0.009 0.0321,0.01908 0.0491,0.02687 0.009,0.0042 0.0194,0.0055 0.0284,0.0088 0.0184,0.0063 0.035,0.01318 0.0506,0.02119 0.0328,-0.0016 0.0656,-0.0052 0.0982,-0.0031 0.0479,0.0031 0.0922,0.01667 0.13952,0.02066 0.0198,0.0063 0.0401,0.0123 0.06,0.0186 0.001,-5.29e-4 0.002,-7.94e-4 0.002,-0.0016 0,-0.0021 -0.006,-0.0021 -0.008,-0.0026 v -5.29e-4 c 0.0114,-0.0042 0.024,-0.0026 0.0362,-0.0036 0.0257,0.0042 0.0514,0.0081 0.077,0.01291 0.009,0.0016 0.0174,0.0053 0.0264,0.0067 0.0338,0.0053 0.0875,-0.0021 0.12144,-0.0036 0.0846,-0.0024 0.16913,-3.2e-5 0.25373,0 0.0432,-1.8e-4 0.0865,-5.29e-4 0.12971,-5.29e-4 0.10189,3.7e-5 0.20352,0 0.30541,0 0.10586,7.93e-4 0.21182,-0.004 0.31729,0.0083 0.0365,0.0042 0.0727,0.01103 0.10904,0.01654 0.10437,0.01167 0.20826,0.03066 0.31368,0.02791 1.1e-4,-2.65e-4 5.3e-4,-7.94e-4 5.3e-4,-0.0011 2.7e-4,-0.0011 0.004,0.0011 0.003,0.0011 -0.001,3.7e-5 -0.002,-3.2e-5 -0.004,0 -0.003,0.0081 -0.005,0.01622 -0.007,0.02429 0.0279,-1.77e-4 0.0562,0.0021 0.0816,0.0036 -0.003,-0.0038 -0.006,-0.0081 -0.009,-0.01241 -0.007,-0.01172 0.0256,0.0082 0.0387,0.01138 0.006,0.0013 0.0111,0.0019 0.0171,0.0026 0.0165,0.0053 0.0326,0.01021 0.0491,0.01551 0.0118,0.0081 0.0241,0.01542 0.0362,0.02326 0.007,-5.3e-4 0.013,-0.0013 0.0196,-0.0016 0.0464,-0.0026 0.093,-0.0026 0.13901,0.0052 0.0139,0.0026 0.0292,0.0029 0.0424,0.0078 0.002,7.93e-4 -0.002,0.0016 -0.007,0.0021 0.01,-1.42e-4 0.0196,-7.93e-4 0.0295,-0.0011 0.0481,-5.29e-4 0.0963,0.0046 0.14366,0.01291 -0.003,7.93e-4 -0.01,0.0013 -0.0114,0.0021 l 5.3e-4,5.3e-4 c 0.0142,0.0016 0.0287,-7.94e-4 0.0429,5.29e-4 0.0341,0.0031 0.0612,0.01998 0.0951,0.02119 0.0114,0.0026 0.0237,0.0026 0.0341,0.0078 0.005,0.0024 -0.0105,7.94e-4 -0.0165,0.0011 0.0184,0.0016 0.0369,0.003 0.0553,0.0047 0.0117,0.0019 0.0228,0.007 0.0341,0.01085 5.3e-4,1.72e-4 0.001,7.94e-4 0.002,0.0011 2.7e-4,9.8e-5 8e-4,-1.08e-4 10e-4,0 0.0157,7.94e-4 0.0271,0.0031 0.0563,0.01344 0.0103,0.0036 0.0249,0.0048 0.0305,0.01344 5.3e-4,2.65e-4 10e-4,7.94e-4 0.002,0.0011 0.004,5.3e-4 0.007,0.0013 0.0108,0.0016 0.0168,0.0016 0.0341,0.0033 0.0501,0.0083 0.0343,0.01074 0.0516,0.01807 0.0589,0.02223 0.014,2.64e-4 0.0281,-7.94e-4 0.0419,0.0016 0.002,2.65e-4 0.0304,0.0084 0.0532,0.01551 0.0274,-2.65e-4 0.054,0.0024 0.0817,0.01085 0.0321,0 0.0645,-2.1e-5 0.0966,0 0.0428,-1.1e-5 0.0854,-7.94e-4 0.12817,0 0.0359,0.0013 0.0712,-5.29e-4 0.10697,-0.0036 0.0502,0.0026 0.044,2.06e-4 0.0899,0.01085 0.004,7.94e-4 0.0109,2.04e-4 0.0119,0.0041 5.3e-4,0.0033 -0.0129,0.0034 -0.0103,0.0036 0.0284,0.0021 0.0567,-0.01246 0.0853,-0.0021 0.016,0.0044 0.0313,0.0081 0.047,0.01344 0.0125,0.0042 0.0248,0.01006 0.0362,0.01704 h 9.35498 v -0.82889 z m 1.00407,0.750342 c 5.3e-4,2.65e-4 10e-4,7.94e-4 0.002,0.0011 h 5.3e-4 c 0.0136,0.0036 0.0289,0.0109 0.0413,0.01757 -0.004,-0.0029 -0.0204,-0.01418 -0.0264,-0.0181 -0.006,-2.59e-4 -0.0114,-1.85e-4 -0.0171,-5.29e-4 z m 1.2299,0.05788 c -0.0899,0.0054 -0.18025,0.0053 -0.27026,0.0041 -0.0698,-7.94e-4 -0.1395,-5e-5 -0.20929,0 l -0.009,0.01654 h 0.6935 c -0.003,2e-6 -0.006,-1.91e-4 -0.01,-5.3e-4 -0.0911,-0.0083 -0.0418,-0.0096 -0.10852,-0.01757 -0.0308,-0.0037 -0.0544,-0.0028 -0.0858,-0.0026 z m 0.30593,0.0155 c -0.0106,5.29e-4 -0.0212,0.0013 -0.0315,0.0021 -0.0129,5.29e-4 -0.0258,0.0011 -0.0388,0.0016 -0.0101,2.65e-4 -0.0204,0.0016 -0.0305,0.0016 h 0.15038 c -0.006,-0.0013 -0.0117,-0.0032 -0.0181,-0.0041 -0.0103,-0.0016 -0.0209,-0.0016 -0.0315,-0.0011 z" />
    </clipPath>
    <clipPath
       clipPathUnits="userSpaceOnUse"
       id="clipPath19284">
      <path
         id="path19286"
         style="font-variation-settings:normal;opacity:1;vector-effect:none;fill:#000000;fill-opacity:1;stroke-width:1.065;stroke-linecap:butt;stroke-linejoin:miter;stroke-miterlimit:4.6;stroke-dasharray:none;stroke-dashoffset:0;stroke-opacity:1;-inkscape-stroke:none;stop-color:#000000;stop-opacity:1"
         d="m 27.683066,63.94545 v 0.329181 h 87.426184 v -0.0057 h 0.0455 c 10e-4,0 0.003,-5.3e-4 0.004,0 0.004,0.0019 0.008,0.0037 0.0114,0.0057 h 1.19321 l -0.003,-0.04393 c 0.003,-1.24e-4 0.007,-2.54e-4 0.0103,-5.29e-4 0.0106,-2.65e-4 0.0212,-2.65e-4 0.031,0.0031 0.008,0.0028 0.0156,0.008 0.0233,0.01241 h 5.3e-4 l 5.3e-4,5.3e-4 c 5.3e-4,2.01e-4 0.002,2.64e-4 0.003,5.29e-4 -0.003,-0.0019 -0.004,-0.0038 -0.007,-0.0057 0.002,7.94e-4 0.009,0.0043 0.0145,0.0078 -0.002,-7.94e-4 -0.005,-0.0013 -0.007,-0.0021 5.3e-4,2.64e-4 7.9e-4,0.0011 0.002,0.0016 2.6e-4,1.94e-4 7.9e-4,2.52e-4 10e-4,5.3e-4 0.003,0.0016 0.006,0.003 0.009,0.0041 -5.3e-4,-5.29e-4 -0.002,-0.0021 -0.004,-0.0036 0.009,0.0031 0.0185,0.0071 0.0222,0.0088 -0.003,-7.93e-4 -0.008,-0.0021 -0.0181,-0.0052 0.002,0.0011 0.005,0.0021 0.007,0.0031 h 5.3e-4 c 0.005,0.0011 0.0134,0.004 0.017,0.0052 0.006,0.0016 0.012,0.0029 0.016,0.0067 -8e-4,-1.32e-4 -0.002,1.35e-4 -0.004,-5.29e-4 0.002,5.29e-4 0.003,0.0016 0.004,0.0021 0.002,7.94e-4 0.004,0.0016 0.006,0.0026 7.9e-4,2.64e-4 5.3e-4,7.94e-4 0.002,0.0011 5.3e-4,2.09e-4 0.001,2.54e-4 0.002,5.29e-4 5.3e-4,2.65e-4 0.001,7.94e-4 0.002,0.0011 h 0.10026 l 0.017,-0.02532 c 0.0161,0.0096 0.0316,0.01728 0.0465,0.02532 h 23.25336 v -0.329182 z" />
    </clipPath>
    <clipPath
       clipPathUnits="userSpaceOnUse"
       id="clipPath19304">
      <path
         id="path19306"
         style="font-variation-settings:normal;opacity:1;vector-effect:none;fill:#000000;fill-opacity:1;stroke-width:1.065;stroke-linecap:butt;stroke-linejoin:miter;stroke-miterlimit:4.6;stroke-dasharray:none;stroke-dashoffset:0;stroke-opacity:1;-inkscape-stroke:none;stop-color:#000000;stop-opacity:1"
         d="m 113.11971,55.284997 v 8.986015 h 1.98954 v -0.0021 h 0.0455 c 10e-4,0 0.003,-5.29e-4 0.004,0 0.001,7.94e-4 0.003,0.0013 0.004,0.0021 h 1.20044 l -0.003,-0.04031 c 0.003,-1.24e-4 0.007,-2.54e-4 0.0103,-5.29e-4 0.0106,-2.65e-4 0.0212,-2.65e-4 0.031,0.0031 0.008,0.0028 0.0156,0.008 0.0233,0.01241 h 5.3e-4 l 5.3e-4,5.3e-4 c 5.3e-4,2.01e-4 0.002,2.64e-4 0.003,5.29e-4 -0.003,-0.0019 -0.004,-0.0038 -0.007,-0.0057 0.002,7.94e-4 0.009,0.0043 0.0145,0.0078 -0.002,-7.94e-4 -0.005,-0.0013 -0.007,-0.0021 5.3e-4,2.64e-4 8e-4,0.0011 0.002,0.0016 2.6e-4,1.94e-4 7.9e-4,2.52e-4 0.001,5.3e-4 0.003,0.0016 0.006,0.003 0.009,0.0041 -5.3e-4,-5.29e-4 -0.002,-0.0021 -0.004,-0.0036 0.009,0.0031 0.0185,0.0071 0.0222,0.0088 -0.003,-7.93e-4 -0.008,-0.0021 -0.0181,-0.0052 0.002,0.0011 0.005,0.0021 0.007,0.0031 h 5.3e-4 c 0.005,0.0011 0.0134,0.004 0.017,0.0052 0.006,0.0016 0.012,0.0029 0.016,0.0067 -8e-4,-1.32e-4 -0.002,1.35e-4 -0.004,-5.29e-4 0.002,5.29e-4 0.003,0.0016 0.004,0.0021 0.001,5.29e-4 0.002,0.0011 0.004,0.0016 h 0.11059 l 0.0145,-0.02169 c 0.0137,0.0081 0.0269,0.01492 0.0398,0.02169 h 15.44195 v -8.986014 z" />
    </clipPath>
    <clipPath
       clipPathUnits="userSpaceOnUse"
       id="clipPath19424">
      <path
         id="path19426"
         style="font-variation-settings:normal;opacity:1;vector-effect:none;fill:#000000;fill-opacity:1;stroke-width:1.065;stroke-linecap:butt;stroke-linejoin:miter;stroke-miterlimit:4.6;stroke-dasharray:none;stroke-dashoffset:0;stroke-opacity:1;-inkscape-stroke:none;stop-color:#000000;stop-opacity:1"
         d="m 78.962623,61.822584 v 5.639964 h 48.202737 c -0.0582,-0.130823 -0.0948,-0.230042 -0.10748,-0.309025 -0.46995,0.0855 -0.73192,0.08734 -1.54254,0.161747 -0.90087,-0.06078 -0.94597,-0.0038 -1.71928,-0.239778 -0.12613,-0.03849 -0.24241,-0.104217 -0.36535,-0.151929 -0.0515,-0.02 -0.16771,0.0031 -0.15761,-0.05116 0.001,-0.0069 0.003,-0.01378 0.004,-0.02066 l -0.0155,0.04082 c -0.0553,-0.02558 -0.17838,-0.0173 -0.16588,-0.077 0.007,-0.03356 0.0159,-0.06715 0.0233,-0.100769 -0.20622,0.04335 -0.41317,0.05195 -0.6227,0.02997 -0.0261,-0.0056 -0.0519,-0.01114 -0.078,-0.01654 -0.002,-2.65e-4 -0.002,-7.94e-4 -0.003,-0.0011 0.008,0.0011 0.0275,0.003 0.0491,0.0073 -0.34586,-0.0711 -0.19035,-0.0477 -0.3638,-0.07338 -0.16223,-0.01064 -0.108,0.04548 -0.28474,-0.04031 -0.14308,0.0029 -0.25157,-0.01738 -0.44597,-0.07234 -0.0138,-0.0039 -0.0315,-0.01117 -0.0496,-0.01913 -0.0735,-0.0081 -0.14625,-0.02299 -0.2191,-0.03566 -0.0436,-0.0076 -0.0863,-0.01942 -0.12971,-0.02791 0.0228,0.0028 0.0388,0.0033 0.0553,5.29e-4 -0.0438,-0.0181 -0.11086,-0.08072 -0.5457,-0.167431 -0.0148,-0.003 0.0209,0.02238 0.0336,0.03049 0.0906,0.05786 0.18001,0.06763 0.28473,0.06563 -0.1511,0.02859 -0.30635,0.02376 -0.4594,0.02066 -0.0336,-7.94e-4 -0.0674,0.0045 -0.10025,-0.0021 -0.10597,-0.02127 -0.20958,-0.05342 -0.31419,-0.08062 -0.10631,0.01127 -0.13504,0.01008 -0.25684,0.01498 -0.0556,9e-5 -0.11131,7.94e-4 -0.16691,5.29e-4 -0.17544,-0.0013 -0.24589,-0.0013 -0.38499,-0.07287 -0.0617,0.0016 -0.12337,2.64e-4 -0.18655,-0.0021 -0.0165,-2.54e-4 -0.0341,0.0062 -0.0491,-5.29e-4 -0.0505,-0.02236 -0.10055,-0.04548 -0.15038,-0.06925 -0.0963,0.01688 -0.0491,-0.01019 -0.43098,-0.08423 0.007,0.0033 0.0139,0.0067 0.0212,0.0093 0.0277,0.0061 0.0555,0.01191 0.0832,0.0181 0.0263,0.0058 -0.0535,-0.0084 -0.0791,-0.01654 -0.001,-5.29e-4 -0.003,-0.0011 -0.004,-0.0016 -0.0412,-0.009 -0.0823,-0.01791 -0.1235,-0.02687 -0.0287,0.0075 -0.0606,0.0011 -0.0904,0.0021 -0.30654,0.0095 -0.16098,0.01275 -0.52813,-0.03876 -0.59444,-0.176707 -0.16947,0.03308 0.61805,-0.618566 0.0107,-0.0088 0.0164,-0.01998 0.0191,-0.03256 -0.005,-0.0042 -0.0131,-0.01077 -0.0145,-0.01188 -0.003,-0.0027 -0.006,-0.0055 -0.009,-0.0083 -0.0198,0.0042 -0.0411,-0.033 -0.0594,-0.04857 -0.0119,-0.01013 -0.0199,-0.02365 -0.03,-0.03565 -0.003,-0.0038 -0.006,-0.0076 -0.009,-0.01138 l -1.17771,0.357081 c -0.0172,-0.118536 -0.13104,-0.265461 -0.0522,-0.355533 0.15779,-0.179973 0.30021,-0.351034 0.44494,-0.464572 -0.008,-0.0021 -0.0164,-0.0046 -0.0248,-0.0078 l -5.3e-4,-5.29e-4 c -0.009,-0.0021 -0.023,-0.0051 -0.0496,-0.0093 -0.008,-0.0013 -0.0132,-0.004 -0.0212,-0.0052 -0.0206,-0.003 -0.0445,-2.64e-4 -0.0651,0.0011 -0.0129,5.3e-4 -0.0262,0.0011 -0.0393,0.0016 -0.0134,5.29e-4 -0.027,0.0021 -0.0403,0.0011 -0.0911,-0.0083 -0.0418,-0.0096 -0.10852,-0.01757 -0.031,-0.0037 -0.0546,-0.0028 -0.0863,-0.0026 -0.0901,0.0054 -0.1806,0.0053 -0.27078,0.0041 -0.0698,-7.94e-4 -0.13949,-5.1e-5 -0.20929,0 l -0.0646,0.120406 c -0.008,-0.0044 -0.0141,-0.0091 -0.0222,-0.01291 -0.012,-0.0057 -0.0209,-0.0097 -0.0279,-0.01241 -0.041,-5.3e-4 -0.0825,0.0024 -0.12351,0.0036 -0.0622,7.94e-4 -0.12141,5.3e-4 -0.18138,-0.0181 -0.0132,-0.0041 -0.0271,-0.0066 -0.0403,-0.01085 -0.0585,-0.0035 -0.1098,-0.02421 -0.15865,-0.05581 -0.004,-0.0033 -0.008,-0.0064 -0.0119,-0.0098 -8e-4,-7.93e-4 -0.002,-0.0021 -0.004,-0.0031 -0.009,-0.0026 -0.0187,-0.0052 -0.0279,-0.0078 -0.0116,-0.0068 -0.0225,-0.01389 -0.0341,-0.02066 -8e-4,-2.64e-4 -0.001,-7.93e-4 -0.002,-0.0011 -5.3e-4,-1.56e-4 -10e-4,-0.0013 -0.002,-0.0016 -0.0157,-0.0044 -0.0241,-0.0091 -0.0341,-0.01704 -0.006,-0.0024 -0.0145,-0.0067 -0.0176,-0.01138 v -0.0026 c -0.008,-0.0024 -0.0108,-0.0038 -0.009,-0.0047 -0.0321,-0.0021 -0.063,-0.0061 -0.0956,-0.01085 -0.0252,-0.0036 -0.0517,-0.0042 -0.0765,-0.01035 -0.0187,-0.0046 -0.0351,-0.01339 -0.0527,-0.02119 7.9e-4,-2.62e-4 0.003,-0.0013 0.003,-0.0016 0.004,1.72e-4 0.0117,0.0011 0.0145,0.0011 -0.0162,-0.0029 -0.0326,-0.0031 -0.0486,-0.0072 -0.0189,-0.0048 -0.037,-0.01273 -0.0553,-0.01963 -0.003,-0.0013 0.0133,0.0046 0.0103,0.0031 -0.0119,-0.0055 -0.0245,-0.0095 -0.0367,-0.01447 -0.0351,-0.01783 -0.0534,-0.02635 -0.091,-0.04909 -0.01,-0.0058 -0.0183,-0.01347 -0.0284,-0.0186 -0.0193,-0.0097 -0.0392,-0.01762 -0.0589,-0.02635 l 0.0579,-0.114205 c -0.0148,-5.29e-4 -0.0289,-0.0031 -0.0429,-0.0093 h -0.0243 v -0.01394 c -0.008,-0.006 -0.0185,-0.01373 -0.0119,-0.01241 0.004,0.0011 0.008,0.0016 0.0119,0.0026 l 5.3e-4,-0.03256 h -0.0165 v -0.09715 h 0.0181 v -0.01394 h 0.0455 c 10e-4,0 0.003,-5.29e-4 0.004,0 0.006,0.003 0.0124,0.0065 0.0186,0.0098 0.004,-5.29e-4 0.009,-0.0013 0.0134,-0.0011 0.013,0.0011 0.0259,0.003 0.0388,0.0052 h 0.0294 0.0946 0.10852 0.0522 c 0.0219,0 0.0437,5e-6 0.0656,0 0.0223,-1.1e-5 0.0445,-3.8e-5 0.0667,0 0.0283,0 0.0564,-2.49e-4 0.0847,0 0.0268,5.29e-4 0.054,0.0019 0.0806,-0.0021 0.0248,0.0024 0.0187,-2.01e-4 0.0413,0.0098 0.001,5.29e-4 0.003,7.94e-4 0.004,0.0016 0.008,5.3e-4 0.0143,0.0011 0.008,-5.29e-4 0.0271,0 0.0545,1.6e-5 0.0816,0 0.0195,-2.6e-5 0.0389,-1.51e-4 0.0584,0 0.0349,3e-6 0.07,-0.0013 0.1049,0 0.005,2.65e-4 0.009,5.29e-4 0.0145,0.0011 5.3e-4,2.6e-5 5.3e-4,-8.2e-5 0.001,0 v 5.29e-4 c 2.6e-4,9e-5 10e-4,-1.43e-4 10e-4,0 -5.3e-4,2.51e-4 -8e-4,0.0013 -0.002,0.0016 0.003,-0.0013 0.005,-0.0026 0.004,-0.0026 0.005,-0.0013 0.0119,-0.0033 0.0279,-0.0078 h 0.0517 0.0377 0.0568 0.061 l -0.004,-0.05374 c 0.003,-1.24e-4 0.007,-2.43e-4 0.0108,-5.29e-4 0.0106,-2.65e-4 0.0212,-2.65e-4 0.031,0.0031 0.008,0.0028 0.0152,0.008 0.0227,0.01241 h 0.001 l 5.3e-4,5.3e-4 c 5.2e-4,1.95e-4 0.001,2.64e-4 0.002,5.29e-4 -0.003,-0.0019 -0.004,-0.0038 -0.007,-0.0057 0.002,7.94e-4 0.009,0.0043 0.0145,0.0078 -0.002,-7.93e-4 -0.005,-0.0013 -0.007,-0.0021 2.6e-4,2.64e-4 2.6e-4,0.0011 0.002,0.0016 2.7e-4,1.93e-4 8e-4,2.41e-4 0.001,5.29e-4 0.003,0.0016 0.006,0.003 0.009,0.0041 -5.3e-4,-5.29e-4 -0.002,-0.0021 -0.004,-0.0036 0.009,0.0031 0.0185,0.0071 0.0222,0.0088 -0.003,-7.93e-4 -0.008,-0.0021 -0.0176,-0.0052 0.002,0.0011 0.005,0.0021 0.007,0.0031 h 5.3e-4 c 0.005,0.0011 0.0134,0.004 0.017,0.0052 0.006,0.0016 0.012,0.0029 0.016,0.0067 -7.9e-4,-1.35e-4 -0.002,1.49e-4 -0.004,-5.29e-4 0.002,5.29e-4 0.003,0.0016 0.004,0.0021 0.002,7.94e-4 0.004,0.0016 0.006,0.0026 7.9e-4,2.64e-4 0.001,7.93e-4 0.002,0.0011 5.3e-4,2.09e-4 10e-4,2.41e-4 0.002,5.29e-4 0.001,5.29e-4 0.002,0.0013 0.004,0.0021 2.6e-4,1.64e-4 7.9e-4,2.38e-4 10e-4,5.29e-4 0.002,0.0011 0.004,0.0019 0.007,0.0031 7.9e-4,5.29e-4 0.001,0.0011 0.002,0.0016 0.0101,0.0053 0.0199,0.01074 0.0222,0.01241 -5.3e-4,-1.48e-4 -0.002,-1.06e-4 -0.004,-0.0011 l -5.2e-4,5.29e-4 c 5.2e-4,5.29e-4 7.9e-4,0.0011 0.002,0.0016 0.007,0.0013 0.0133,0.0027 0.0196,0.0041 0.009,0.0043 0.006,0.0035 0.0114,0.0041 0.008,-0.0019 0.0152,-0.0036 0.0222,-0.0052 l 0.032,-0.04806 c 0.0258,0.01529 0.049,0.02691 0.0713,0.04134 0.0193,-0.0011 0.0384,5.29e-4 0.0574,0.0052 0.002,7.93e-4 0.005,0.0019 0.008,0.0026 2.6e-4,8.3e-5 7.9e-4,-8.4e-5 0.001,0 0.0114,7.94e-4 0.0218,0.0033 0.0331,0.0072 0.002,7.93e-4 0.004,0.0019 0.006,0.0026 5.3e-4,2.17e-4 10e-4,2.39e-4 0.002,5.3e-4 0.006,0.0011 0.0186,0.0063 0.0248,0.0083 0.0183,0.0059 0.0365,0.01505 0.0537,0.02326 l -0.017,0.03617 -0.004,0.0083 c 0.0294,0.0013 0.0589,0.0026 0.0884,5.29e-4 0.0801,-0.0073 0.0387,-0.003 0.12454,-0.01447 0.006,-5.29e-4 0.0202,-0.0029 0.017,0.0021 -0.007,0.01339 -0.0499,0.03029 -0.0346,0.02997 0.143,-0.003 0.16117,-0.02708 0.16847,-0.03617 -0.0145,-2.64e-4 -0.0388,0.0034 -0.03,-0.0021 0.01,-0.006 0.0222,-0.0028 0.0341,-0.0016 5.3e-4,-1.43e-4 0.001,-2.09e-4 0.002,0 2.7e-4,7.7e-5 8e-4,-1.3e-4 0.001,0 0.002,1.03e-4 0.003,5.29e-4 0.005,5.29e-4 0.0568,2.01e-4 0.11349,0.006 0.1695,0.01498 -0.008,0.01738 -0.0555,0.03996 -0.0605,0.04444 2.5e-4,2.46e-4 10e-4,7.94e-4 0.004,0 0.0359,-0.0095 0.0634,-0.04151 0.0997,-0.04961 0.0489,-0.0109 0.099,0.02019 0.13953,0.04186 0.0213,0.01056 0.0405,0.02074 0.063,0.02894 0.0508,0.01855 0.0682,0.01752 0.10904,0.04754 0.0152,0.01117 0.038,0.01884 0.0419,0.03721 0.003,0.01175 0.004,0.02371 0.006,0.03566 0.004,0.0019 0.009,0.0044 0.0119,0.0052 0.006,0.0013 0.0106,0.0019 0.0165,0.0026 0.0165,0.0053 0.0326,0.01021 0.0491,0.0155 0.0116,0.0079 0.0243,0.01508 0.0362,0.02273 0.007,-5.3e-4 0.0142,-0.0013 0.0212,-0.0016 0.0464,-0.0026 0.093,-0.0026 0.13901,0.0052 0.0139,0.0026 0.0292,0.0034 0.0424,0.0083 0.004,0.0016 -0.0169,0.0024 -0.0129,0.0026 0.012,5.3e-4 0.0242,-0.0019 0.0362,-0.0021 0.0481,-5.29e-4 0.0963,0.0046 0.14367,0.01291 -0.003,7.94e-4 -0.01,0.0019 -0.0114,0.0026 l 5.3e-4,5.29e-4 c 0.0142,0.0016 0.0287,-7.93e-4 0.0429,5.3e-4 0.0341,0.0031 0.0612,0.01998 0.0951,0.02119 0.0114,0.0026 0.0237,0.0036 0.0341,0.0088 0.005,0.0024 -0.0105,7.94e-4 -0.0165,0.0011 0.0184,0.0016 0.0369,0.003 0.0553,0.0047 0.0117,0.0019 0.0228,0.007 0.0341,0.01085 5.3e-4,1.72e-4 0.001,0.0013 0.002,0.0016 h 5.3e-4 c 0.0157,7.94e-4 0.0276,0.0031 0.0568,0.01344 0.0103,0.0036 0.0249,0.0048 0.0305,0.01344 5.3e-4,2.64e-4 1.6e-4,0.0013 0.002,0.0016 0.004,5.3e-4 0.007,0.0013 0.0114,0.0016 0.0168,0.0016 0.034,0.0038 0.0501,0.0088 0.0343,0.01074 0.0511,0.01807 0.0584,0.02222 0.014,2.65e-4 0.0287,-7.94e-4 0.0424,0.0016 0.002,2.62e-4 0.0299,0.0084 0.0527,0.0155 0.0274,-2.64e-4 0.0542,0.0024 0.0817,0.01085 0.0321,0 0.064,-2.6e-5 0.0961,0 0.0428,-1.3e-5 0.0854,-7.94e-4 0.12816,0 0.0359,0.0013 0.0712,-5.29e-4 0.10697,-0.0036 0.0502,0.0026 0.044,2.2e-4 0.0899,0.01085 0.004,7.94e-4 0.0109,2.65e-4 0.0119,0.0041 5.3e-4,0.0033 -0.0135,0.0034 -0.0109,0.0036 0.0284,0.0021 0.0572,-0.0123 0.0858,-0.0021 0.016,0.0044 0.0312,0.0081 0.047,0.01344 0.0384,0.01291 0.0712,0.04127 0.0987,0.07183 l 10e-4,5.3e-4 c 0.004,0.0013 0.008,0.0021 0.0114,0.0036 0.036,0.01482 0.0637,0.04834 0.0894,0.07545 0.006,0.0087 0.0136,0.01685 0.0186,0.02635 0.007,0.01233 -0.0264,-0.0044 0.006,0.01344 0.008,0.0045 0.0167,0.0084 0.0253,0.01241 0.2343,-0.01281 0.47301,-0.04371 0.68936,0.0739 0.0709,0.0021 0.14975,0.0031 0.17622,-0.0036 0.17374,-0.01646 0.21809,-0.03382 0.40101,0.01241 0.0358,0.009 0.0774,0.02394 0.11937,0.04237 0.1901,0.01752 0.36281,0.108111 0.55862,0.09405 0.0547,0.01913 0.16343,0.04921 0.17416,0.06305 0.0804,0.0016 0.15093,1.8e-4 0.1049,-0.01497 0.27046,0.04825 0.2841,0.03912 0.30592,0.06149 0.0957,0.01617 0.19001,0.03394 0.19999,0.03359 -0.001,-7.94e-4 -0.007,-0.0036 -0.0207,-0.0072 0.0658,0.0176 0.14704,0.03657 0.18913,0.04909 0.0597,0.0037 0.11344,0.0082 0.12093,0.01138 h 5.3e-4 c 0.008,-0.0011 0.0166,-0.0019 0.0248,-0.0031 0.061,-0.0086 0.36793,-0.06536 0.42426,-0.06925 0.0429,-0.01995 0.0859,-0.03887 0.12971,-0.05581 0.17012,-0.06579 0.57343,0.153363 0.72347,0.21911 l -0.0987,0.177249 c 0.12265,0.05156 0.24352,0.108133 0.37052,0.147278 0.49329,0.152027 0.73602,0.118057 1.29087,0.143145 0.92935,-0.0986 1.00298,-0.07254 1.84847,-0.274921 0.0497,-0.01191 0.13054,-0.05968 0.19585,-0.09353 0.0924,-0.08949 0.19079,-0.15064 0.29611,-0.152963 0.0808,-0.0019 0.16573,0.03115 0.25476,0.112138 0.0601,0.0072 0.13696,0.02389 0.30438,0.03928 l -0.0791,0.259932 c 0.0466,0.0817 0.0949,0.182811 0.14366,0.294039 0.0657,-0.03589 0.13133,-0.0717 0.19689,-0.107487 l 0.0863,0.177766 c 0.0357,-0.0061 0.0716,-0.01172 0.10749,-0.01704 v -4.391981 z m 36.216397,2.456696 c 0.002,0.0011 0.004,0.0021 0.006,0.0031 h 0.009 c -0.005,-0.0013 -0.01,-0.0028 -0.015,-0.0031 z m 1.36942,0.02376 c -0.001,1.11e-4 -0.003,2.64e-4 -0.004,5.29e-4 l -5.2e-4,5.29e-4 c 0.003,0 0.004,-5.29e-4 0.007,-0.0011 -7.9e-4,-5.6e-5 -0.002,-3.2e-5 -0.003,0 z m 0.22944,0.0036 c -10e-4,-1.37e-4 -0.002,1.25e-4 0,0.0016 0.0207,0.0196 0.0425,0.04172 0.0698,0.05013 0.0246,0.0076 -0.0446,-0.02779 -0.061,-0.04754 -7.9e-4,-7.94e-4 -0.001,-0.0016 -0.001,-0.0021 -0.003,-0.0011 -0.006,-0.0019 -0.008,-0.0021 z m -1.13171,0.431499 c 2.7e-4,2.14e-4 7.9e-4,1.85e-4 0.001,5.29e-4 h 10e-4 c 0.0136,0.0036 0.0284,0.0109 0.0408,0.01757 -0.004,-0.0028 -0.0196,-0.01386 -0.0253,-0.01757 -0.006,-2.62e-4 -0.0118,-1.03e-4 -0.0176,-5.29e-4 z m 3.86333,0.116271 c -0.001,0 -0.001,5.29e-4 0,0.0011 0.008,0.0032 0.0161,0.0061 0.0243,0.0088 -0.002,-0.0016 -0.004,-0.0036 -0.007,-0.0052 -0.004,-0.0024 -0.0123,-0.0043 -0.0155,-0.0047 z m 2.78949,0.536919 c 0.0393,0.03275 0.10493,0.08077 0.2248,0.153477 0.0524,0.03176 -0.0798,-0.09842 -0.13539,-0.124021 -0.0286,-0.01315 -0.0586,-0.0222 -0.0894,-0.02946 z m 0.73743,0.02687 c -0.0379,0.0046 -0.0748,0.0096 -0.0997,0.0186 -0.0134,0.02186 -0.0259,0.04449 -0.0382,0.06718 0.0445,-0.03078 0.0907,-0.05911 0.13798,-0.08578 z m -0.3607,0.0021 c -0.009,-1.67e-4 -0.0172,-5.1e-5 -0.0258,5.29e-4 -0.003,9e-5 0.004,0.0043 0.007,0.0041 0.0151,-7.94e-4 0.0304,-0.0021 0.0455,-0.0036 -0.009,-2.64e-4 -0.0176,-7.93e-4 -0.0263,-0.0011 z m 4.71702,0.49041 c -0.0672,0.05208 -0.11776,0.107019 -0.12041,0.174665 0.0387,-0.05567 0.0788,-0.115046 0.12041,-0.174665 z m -9.00203,0.125058 c 0.1279,0.08848 0.17893,0.139512 0.30954,0.152961 -0.10358,-0.04991 -0.20663,-0.101719 -0.30954,-0.152961 z m -0.27647,0.04547 c -0.01,-0.0011 0.0179,0.0078 0.0279,0.0098 0.003,5.29e-4 0.008,7.94e-4 0.0124,0.0011 -0.0133,-0.0039 -0.0265,-0.0094 -0.0403,-0.01085 z m 10.20351,0.09818 -0.045,0.148312 c 0.0416,-0.02596 0.0827,-0.05237 0.12454,-0.07803 -0.0258,-0.02302 -0.0507,-0.04552 -0.0796,-0.07028 z m -8.50181,0.105937 c -10e-4,-2.33e-4 0.004,0.0029 0.0372,0.01913 0.003,5.29e-4 0.005,0.0011 0.008,0.0016 -0.0151,-0.0069 -0.0349,-0.01582 -0.0455,-0.02066 z m 7.52202,0.03824 c 0.0559,0.164473 0.11178,0.289846 0.16795,0.388091 0.0358,-0.01667 0.0728,-0.03376 0.11317,-0.05271 0.0125,-0.0056 0.0209,-0.0092 0.0315,-0.01394 -0.10622,-0.104746 -0.20802,-0.214635 -0.31265,-0.321429 z m -6.09833,0.167434 c 10e-4,7.93e-4 0.006,0.0037 0.0253,0.01447 0.002,5.29e-4 0.006,0.0016 0.008,0.0021 -0.0177,-0.0087 -0.0297,-0.01463 -0.0336,-0.01654 z m 0.4315,0.06149 c 0.003,5.29e-4 0.0141,0.0029 0.0181,0.0036 -7.9e-4,-5.29e-4 -0.002,-0.0011 -0.003,-0.0016 -0.0132,-0.0021 -0.0176,-0.0026 -0.015,-0.0021 z" />
    </clipPath>
    <linearGradient
       inkscape:collect="always"
       xlink:href="#linearGradient20127"
       id="linearGradient20129"
       x1="124.80768"
       y1="61.319305"
       x2="149.78174"
       y2="61.319305"
       gradientUnits="userSpaceOnUse"
       gradientTransform="matrix(1.0186744,0,0,1.7838781,-0.39153697,-50.222116)" />
    <linearGradient
       inkscape:collect="always"
       xlink:href="#linearGradient28298"
       id="linearGradient21967"
       x1="126.20531"
       y1="74.505112"
       x2="136.46567"
       y2="74.505112"
       gradientUnits="userSpaceOnUse" />
    <linearGradient
       inkscape:collect="always"
       xlink:href="#linearGradient28298"
       id="linearGradient28300"
       x1="128.97433"
       y1="66.485008"
       x2="141.88643"
       y2="66.485008"
       gradientUnits="userSpaceOnUse" />
    <linearGradient
       inkscape:collect="always"
       xlink:href="#linearGradient1188"
       id="linearGradient1190"
       x1="0.4075041"
       y1="63.691479"
       x2="208.96242"
       y2="63.691479"
       gradientUnits="userSpaceOnUse"
       gradientTransform="matrix(1.0021056,0,0,1.0033136,-0.00172736,-0.42376463)" />
  </defs>
  <g
     inkscape:groupmode="layer"
     id="layer4"
     inkscape:label="Layer 2"
     style="display:inline">
    <rect
       style="display:inline;fill:url(#linearGradient1190);fill-opacity:1;stroke:#ffffff;stroke-width:0.26356;stroke-dasharray:none;stroke-opacity:1"
       id="rect30228"
       width="208.73064"
       height="127.54513"
       x="0.53833544"
       y="-0.29380363"
       ry="0.057021651"
       transform="matrix(0.99999494,0.00318093,-0.00319985,0.99999488,0,0)" />
    <text
       xml:space="preserve"
       transform="scale(0.26458333)"
       id="text2020"
       style="fill:#fffffb;font-size:24px;-inkscape-font-specification:sans-serif;font-family:sans-serif;stroke:#ffffff;stroke-width:1.0015748;fill-opacity:0;stroke-opacity:1;white-space:pre;shape-inside:url(#rect2022)" />
    <text
       xml:space="preserve"
       style="font-size:6.35px;font-family:sans-serif;-inkscape-font-specification:sans-serif;fill:#fffffb;fill-opacity:0;stroke:#ffffff;stroke-width:0.264999;stroke-opacity:1"
       x="16.481485"
       y="48.183243"
       id="text2028"><tspan
         sodipodi:role="line"
         id="tspan2026"
         style="fill:#000000;fill-opacity:0.995678;stroke-width:0.265"
         x="16.481485"
         y="48.183243" /></text>
    <text
       xml:space="preserve"
       style="font-size:5.69629px;font-family:sans-serif;-inkscape-font-specification:sans-serif;fill:#000000;fill-opacity:1;stroke:#ffffff;stroke-width:0.237717;stroke-opacity:1"
       x="22.132498"
       y="49.642509"
       id="text2614"
       transform="scale(1.0274422,0.9732908)"><tspan
         sodipodi:role="line"
         id="tspan2624"
         x="22.132498"
         y="49.642509"
         style="stroke-width:0.237717"><tspan
           style="font-style:italic;font-variant:normal;font-weight:normal;font-stretch:normal;font-family:sans-serif;-inkscape-font-specification:'sans-serif Italic';stroke-width:0.237717"
           id="tspan2626"></tspan></tspan></text>
  </g>
  <g
     inkscape:label="Layer 1"
     inkscape:groupmode="layer"
     id="layer1"
     style="display:inline">
    <path
       style="fill:none;stroke:#000000;stroke-width:0.689;stroke-linecap:butt;stroke-linejoin:miter;stroke-dasharray:none;stroke-opacity:1"
       d="m 32.354897,105.64189 c 1.557339,-31.414839 3.114692,-62.829976 4.931653,-69.751755 1.816961,-6.921779 3.893391,10.649048 5.450756,23.428167 1.557366,12.77912 2.595581,20.76586 4.152904,20.765714 1.557322,-1.45e-4 3.633751,-7.986883 5.710281,-15.974006"
       id="path17138"
       inkscape:path-effect="#path-effect17140"
       inkscape:original-d="m 32.354897,105.64189 c 1.557665,-31.414823 3.115018,-62.82996 4.67206,-94.245414 2.076825,17.571848 4.153253,35.142675 6.229413,52.713533 1.038568,7.987378 2.076783,15.974118 3.114707,23.960698 2.076825,-7.98674 4.153254,-15.973478 6.229414,-23.960697" />
    <path
       style="fill:none;stroke:#000000;stroke-width:0.320455px;stroke-linecap:butt;stroke-linejoin:miter;stroke-dasharray:1.28182, 0.320455;stroke-dashoffset:0;stroke-opacity:1"
       d="m 28.862529,54.52573 c 35.358644,0 70.716966,0 106.074971,0"
       id="path17142"
       inkscape:path-effect="#path-effect17144"
       inkscape:original-d="m 28.862529,54.52573 c 35.358644,3.2e-4 70.716966,3.2e-4 106.074971,0" />
    <path
       style="fill:none;stroke:#000000;stroke-width:0.329618px;stroke-linecap:butt;stroke-linejoin:miter;stroke-dasharray:1.31847, 0.329618;stroke-dashoffset:0;stroke-opacity:1"
       d="m 27.682837,64.110009 c 37.409534,0 74.818723,0 112.227583,0"
       id="path17146"
       inkscape:path-effect="#path-effect17148"
       inkscape:original-d="m 27.682837,64.110009 c 37.409534,3.19e-4 74.818723,3.19e-4 112.227583,0"
       clip-path="url(#clipPath19284)"
       transform="matrix(0.98740702,0,0,1,1.7618888,0)" />
    <path
       style="fill:none;stroke:#000000;stroke-width:0.689;stroke-linecap:butt;stroke-linejoin:miter;stroke-dasharray:none;stroke-opacity:1"
       d="m 52.60049,64.110009 c 1.5573,-6.921741 3.114653,-13.84372 4.67209,-13.843584 1.557438,1.35e-4 3.11476,6.921976 4.672167,12.246618 1.557407,5.324643 3.11473,9.051788 4.412425,9.051668 1.297695,-1.2e-4 2.335909,-3.727265 3.374154,-7.188296 1.038244,-3.461031 2.076459,-6.655727 3.633984,-6.655611 1.557525,1.17e-4 3.633954,3.194813 5.710186,6.389206"
       id="path17150"
       inkscape:path-effect="#path-effect17152"
       inkscape:original-d="m 52.60049,64.110009 c 1.557664,-6.921659 3.115018,-13.843638 4.67206,-20.765937 1.557696,6.922437 3.115018,13.844278 4.672059,20.765937 1.557697,3.727613 3.11502,7.454759 4.672062,11.181659 1.038567,-3.726974 2.076782,-7.454119 3.114706,-11.181658 1.038568,-3.194504 2.076783,-6.3892 3.114708,-9.584279 2.076823,3.195142 4.153253,6.389838 6.229411,9.584279" />
    <path
       style="fill:none;stroke:#000000;stroke-width:0.327159px;stroke-linecap:butt;stroke-linejoin:miter;stroke-dasharray:1.30864, 0.327159;stroke-dashoffset:0;stroke-opacity:1"
       d="m 79.075495,23.168167 c 0,12.600496 0,25.200647 0,38.946415 0,13.745768 10e-7,28.636558 10e-7,43.527308"
       id="path17154"
       inkscape:path-effect="#path-effect17156"
       inkscape:original-d="m 79.075495,23.168167 c 3.13e-4,12.600496 3.13e-4,25.200647 0,37.800453 3.13e-4,14.89173 3.13e-4,29.78252 10e-7,44.67327" />
    <path
       style="fill:none;stroke:#000000;stroke-width:0.30296px;stroke-linecap:butt;stroke-linejoin:miter;stroke-dasharray:1.21184, 0.30296;stroke-dashoffset:0;stroke-opacity:1"
       d="m 114.89463,35.846825 c 0,10.805377 0,21.610457 0,33.397946 0,11.787488 0,24.556875 0,37.326259"
       id="path17158"
       inkscape:path-effect="#path-effect17160"
       inkscape:original-d="m 114.89463,35.846825 c 3e-4,10.805377 3e-4,21.610457 0,32.415243 3e-4,12.770191 3e-4,25.539578 0,38.308962" />
    <path
       style="fill:none;stroke:#000000;stroke-width:0.689;stroke-linecap:butt;stroke-linejoin:miter;stroke-dasharray:none;stroke-opacity:1"
       d="m 79.075495,64.110009 c 1.557665,1.597699 3.115019,3.195079 4.412642,3.194944 1.297622,-1.35e-4 2.335837,-1.597482 3.633705,-2.928705 1.297868,-1.331223 2.855189,-2.396121 4.412709,-2.395964 1.557519,1.57e-4 3.114837,1.065053 4.672216,1.86369 1.55738,0.798637 3.114698,1.331085 4.671973,1.330984 1.55727,-1.01e-4 3.1146,-0.532552 4.41238,-1.065018 1.29777,-0.532466 2.33597,-1.064911 6.22955,-0.532361 3.89358,0.532549 10.64198,2.129896 17.39015,3.72719"
       id="path17162"
       inkscape:path-effect="#path-effect17164"
       inkscape:original-d="m 79.075495,64.110009 c 1.557665,1.597699 3.115019,3.195079 4.672061,4.792139 1.038568,-1.597093 2.076783,-3.19444 3.114707,-4.792139 1.557696,-1.064621 3.115016,-2.12952 4.672058,-3.194759 1.557701,1.065261 3.115017,2.13016 4.67206,3.19476 1.557701,0.53279 3.115019,1.065239 4.672059,1.597379 1.5577,-0.53215 3.11503,-1.064599 4.67207,-1.597379 1.03858,-0.532151 2.07678,-1.0646 3.1147,-1.59738 6.74898,1.597732 13.49738,3.195079 20.24561,4.792139"
       clip-path="url(#clipPath19424)" />
    <text
       xml:space="preserve"
       transform="matrix(0.26458333,0,0,0.26458333,4.2333335,1.5875)"
       id="text18770"
       style="font-size:18.6667px;font-family:Yrsa;-inkscape-font-specification:Yrsa;white-space:pre;shape-inside:url(#rect18772);display:inline;fill:#000000;stroke-width:1.00157;stroke-miterlimit:4.6;stroke-dasharray:3.99999, 0.999999;stroke-dashoffset:0"><tspan
         x="316.11523"
         y="326.54729"
         id="tspan2791">Range for</tspan></text>
    <text
       xml:space="preserve"
       transform="scale(0.26458333)"
       id="text18828"
       style="font-size:18.6667px;font-family:Yrsa;-inkscape-font-specification:Yrsa;white-space:pre;shape-inside:url(#rect18830);display:inline;fill:#000000;stroke-width:1.00157;stroke-miterlimit:4.6;stroke-dasharray:3.99999, 0.999999;stroke-dashoffset:0" />
    <text
       xml:space="preserve"
       transform="matrix(0.26458333,0,0,0.26458333,6.879167,0)"
       id="text18834"
       style="font-size:18.6667px;font-family:Yrsa;-inkscape-font-specification:Yrsa;white-space:pre;shape-inside:url(#rect18836);display:inline;fill:#000000;stroke-width:1.00157;stroke-miterlimit:4.6;stroke-dasharray:3.99999, 0.999999;stroke-dashoffset:0"><tspan
         x="327.81836"
         y="355.13518"
         id="tspan2793">V</tspan></text>
    <text
       xml:space="preserve"
       transform="matrix(0.26458333,0,0,0.26458333,9.5250005,-1.5875)"
       id="text18840"
       style="font-size:8px;font-family:Yrsa;-inkscape-font-specification:Yrsa;white-space:pre;shape-inside:url(#rect18842);display:inline;fill:#000000;stroke-width:1.00157;stroke-miterlimit:4.6;stroke-dasharray:3.99999, 0.999999;stroke-dashoffset:0"><tspan
         x="326.44531"
         y="363.10926"
         id="tspan2795">O</tspan></text>
    <path
       style="fill:none;stroke:#000000;stroke-width:0.689;stroke-linecap:butt;stroke-linejoin:miter;stroke-dasharray:none;stroke-opacity:1"
       d="m 113.24402,63.820026 c 0.89632,0.205551 1.79228,0.41102 4.95239,-1.386215 3.1601,-1.797236 8.58441,-5.596893 14.00878,-9.396586"
       id="path19428"
       inkscape:path-effect="#path-effect19430"
       inkscape:original-d="m 113.24402,63.820026 c 0.89627,0.205762 1.79223,0.411232 2.68789,0.616409 5.42484,-3.79952 10.84915,-7.599181 16.27328,-11.39921" />
    <path
       style="fill:none;stroke:#000000;stroke-width:0.689;stroke-linecap:butt;stroke-linejoin:miter;stroke-dasharray:none;stroke-opacity:1"
       d="m 114.67769,64.172835 c 2.77298,0.215379 5.54568,0.430737 8.38983,0.339368 2.84415,-0.09137 5.7597,-0.489394 8.67508,-0.887397"
       id="path19432"
       inkscape:path-effect="#path-effect19434"
       inkscape:original-d="m 114.67769,64.172835 c 2.77296,0.215622 5.54566,0.430979 8.31809,0.646072 2.91593,-0.397777 5.83148,-0.795803 8.74682,-1.194101" />
    <path
       style="fill:none;stroke:#000000;stroke-width:0.689;stroke-linecap:butt;stroke-linejoin:miter;stroke-dasharray:none;stroke-opacity:1"
       d="m 104.97151,64.563208 c 1.11786,-0.86145 2.23572,-1.722896 6.5921,-0.829518 4.35639,0.893378 11.95067,3.541343 19.54478,6.189247"
       id="path19436"
       inkscape:path-effect="#path-effect19438"
       inkscape:original-d="m 104.97151,64.563208 c 1.11811,-0.861129 2.23597,-1.72257 3.35356,-2.58433 7.59486,2.648387 15.18914,5.296358 22.78332,7.944059" />
    <path
       style="fill:none;stroke:#000000;stroke-width:0.264583px;stroke-linecap:butt;stroke-linejoin:miter;stroke-opacity:1"
       d="M 29.104166,105.83333 V 21.166666"
       id="path19440" />
    <path
       style="fill:none;stroke:#000000;stroke-width:0.264583px;stroke-linecap:butt;stroke-linejoin:miter;stroke-opacity:1"
       d="M 29.104166,105.83333 H 156.10416"
       id="path19442" />
    <path
       style="fill:none;stroke:#000000;stroke-width:0.264583px;stroke-linecap:butt;stroke-linejoin:miter;stroke-dasharray:1.05833, 0.264583;stroke-dashoffset:0;stroke-opacity:1"
       d="m 130.24836,54.510363 0.0512,51.403767"
       id="path19444" />
    <text
       xml:space="preserve"
       transform="matrix(0.28597138,0,0,0.28371513,-0.69740513,-2.7593371)"
       id="text19446"
       style="font-size:18.6667px;font-family:Yrsa;-inkscape-font-specification:Yrsa;white-space:pre;shape-inside:url(#rect19448);display:inline;fill:#000000;stroke-width:1.00157;stroke-miterlimit:4.6;stroke-dasharray:3.99999, 0.999999;stroke-dashoffset:0"><tspan
         x="144.73438"
         y="93.809004"
         id="tspan2797">Domain of 
</tspan><tspan
         x="144.73438"
         y="117.14238"
         id="tspan2799">microscopic </tspan><tspan
         x="144.73438"
         y="140.47575"
         id="tspan2801">inhomogeneity</tspan></text>
    <text
       xml:space="preserve"
       transform="matrix(0.25966061,0,0,0.25833448,1.6344461,4.6968134)"
       id="text19452"
       style="font-size:18.6667px;font-family:Yrsa;-inkscape-font-specification:Yrsa;white-space:pre;shape-inside:url(#rect19454);display:inline;fill:#000000;stroke-width:1.00157;stroke-miterlimit:4.6;stroke-dasharray:3.99999, 0.999999;stroke-dashoffset:0"><tspan
         x="331.46094"
         y="86.359785"
         id="tspan2803">Domain of porous </tspan><tspan
         x="331.46094"
         y="109.69316"
         id="tspan2805">medium</tspan></text>
    <text
       xml:space="preserve"
       transform="matrix(0.25994957,0,0,0.24540797,-10.943672,1.3995142)"
       id="text19458"
       style="font-size:18.6667px;font-family:Yrsa;-inkscape-font-specification:Yrsa;white-space:pre;shape-inside:url(#rect19460);display:inline;fill:#000000;stroke-width:1.00157;stroke-miterlimit:4.6;stroke-dasharray:3.99999, 0.999999;stroke-dashoffset:0"><tspan
         x="561.18359"
         y="125.39104"
         id="tspan2807">Domain of </tspan><tspan
         x="561.18359"
         y="148.72441"
         id="tspan2809">(possible) </tspan><tspan
         x="561.18359"
         y="172.05778"
         id="tspan2811">macroscopic </tspan><tspan
         x="561.18359"
         y="195.39116"
         id="tspan2813">heterogeneity</tspan></text>
    <text
       xml:space="preserve"
       transform="matrix(0.26458333,0,0,0.26458333,3.0479944,-7.0556104)"
       id="text19464"
       style="font-size:18.6667px;font-family:Yrsa;-inkscape-font-specification:Yrsa;white-space:pre;shape-inside:url(#rect19466);display:inline;fill:#000000;stroke-width:1.00157;stroke-miterlimit:4.6;stroke-dasharray:3.99999, 0.999999;stroke-dashoffset:0"><tspan
         x="569.86914"
         y="238.49064"
         id="tspan2815">Homogeneous </tspan><tspan
         x="569.86914"
         y="261.82402"
         id="tspan2817">medium</tspan></text>
    <text
       xml:space="preserve"
       transform="scale(0.26458333)"
       id="text19470"
       style="font-size:18.6667px;font-family:Yrsa;-inkscape-font-specification:Yrsa;white-space:pre;shape-inside:url(#rect19472);display:inline;fill:#000000;fill-opacity:0.996416;stroke-width:1.00157;stroke-miterlimit:4.6;stroke-dasharray:3.99999, 0.999999;stroke-dashoffset:0"><tspan
         x="516.71289"
         y="305.34416"
         id="tspan2819">Heterogeneous </tspan><tspan
         x="516.71289"
         y="328.67753"
         id="tspan2821">medium</tspan></text>
    <text
       xml:space="preserve"
       transform="matrix(0.26458333,0,0,0.26458333,0,-2.1166667)"
       id="text19476"
       style="font-size:18.6667px;font-family:Yrsa;-inkscape-font-specification:Yrsa;white-space:pre;shape-inside:url(#rect19478);display:inline;fill:#000000;stroke-width:1.00157;stroke-miterlimit:4.6;stroke-dasharray:3.99999, 0.999999;stroke-dashoffset:0"><tspan
         x="551.1582"
         y="428.17544"
         id="tspan2825">Volume, <tspan
   style="font-size:24px"
   id="tspan2823">v</tspan></tspan></text>
    <text
       xml:space="preserve"
       style="font-size:8.23803px;font-family:Yrsa;-inkscape-font-specification:Yrsa;fill:#000000;stroke-width:0.20428;stroke-miterlimit:4.6;stroke-dasharray:0.815834, 0.20396;stroke-dashoffset:0"
       x="117.14359"
       y="104.88267"
       id="text19599"
       transform="scale(0.94630113,1.0567461)"><tspan
         sodipodi:role="line"
         id="tspan19597"
         style="font-size:8.23803px;stroke-width:0.204281"
         x="117.14359"
         y="104.88267"><tspan
           style="font-size:7.20827px;stroke-width:0.204281"
           id="tspan19631">v</tspan><tspan
           style="font-size:3.08926px;stroke-width:0.204281"
           id="tspan19629">max</tspan></tspan></text>
    <text
       xml:space="preserve"
       style="font-size:3.62026px;font-family:Yrsa;-inkscape-font-specification:Yrsa;fill:#000000;stroke-width:0.151081;stroke-miterlimit:4.6;stroke-dasharray:0.603373, 0.150844;stroke-dashoffset:0"
       x="71.65905"
       y="116.96226"
       id="text19605"
       transform="scale(1.0547959,0.94805073)"><tspan
         sodipodi:role="line"
         id="tspan19603"
         style="font-size:3.62026px;stroke-width:0.151082"
         x="71.65905"
         y="116.96226"><tspan
           style="font-size:6.79774px;stroke-width:0.151082"
           id="tspan19635">V</tspan><tspan
           style="font-size:2.91331px;stroke-width:0.151082"
           id="tspan19633">min</tspan></tspan></text>
    <text
       xml:space="preserve"
       style="font-size:5.79834px;font-family:Yrsa;-inkscape-font-specification:Yrsa;fill:#000000;stroke-width:0.241977;stroke-miterlimit:4.6;stroke-dasharray:0.966386, 0.241598;stroke-dashoffset:0"
       x="20.808956"
       y="119.68858"
       id="text19611"
       transform="scale(1.1233024,0.89023221)"><tspan
         sodipodi:role="line"
         id="tspan19609"
         style="font-size:5.79834px;stroke-width:0.241978"
         x="20.808956"
         y="119.68858">0</tspan></text>
    <text
       xml:space="preserve"
       style="font-size:4.56748px;font-family:Yrsa;-inkscape-font-specification:Yrsa;fill:#000000;stroke-width:0.190611;stroke-miterlimit:4.6;stroke-dasharray:0.761245, 0.190312;stroke-dashoffset:0"
       x="22.899174"
       y="30.695459"
       id="text19615"
       transform="scale(0.98115197,1.0192101)"><tspan
         sodipodi:role="line"
         id="tspan19613"
         style="stroke-width:0.190612"
         x="22.899174"
         y="30.695459">1.0</tspan></text>
    <text
       xml:space="preserve"
       transform="matrix(0.00492202,-0.28600965,0.32698349,0.00430525,-56.711432,78.403797)"
       id="text19617"
       style="font-size:24px;font-family:Yrsa;-inkscape-font-specification:Yrsa;white-space:pre;shape-inside:url(#rect19619);display:inline;fill:#000000;stroke-width:1.00157;stroke-miterlimit:4.6;stroke-dasharray:3.99999, 0.999999;stroke-dashoffset:0"><tspan
         x="30.318359"
         y="243.47036"
         id="tspan2829">v<tspan
   style="font-size:10.6667px"
   id="tspan2827">v</tspan>/v</tspan></text>
    <path
       style="fill:none;stroke:url(#linearGradient20129);stroke-width:0.356666px;stroke-linecap:butt;stroke-linejoin:miter;stroke-opacity:1"
       d="m 152.12612,61.131115 c -3.60578,-3.215297 -7.21195,-6.430943 -11.43262,-6.067141 -4.22067,0.363801 -9.0552,4.307184 -13.88975,8.250577"
       id="path19641"
       inkscape:path-effect="#path-effect19643"
       inkscape:original-d="m 152.12612,61.131115 c -3.60589,-3.215171 -7.21206,-6.430816 -10.8185,-9.646931 -4.83445,3.944007 -9.66899,7.887384 -14.50387,11.830367" />
    <path
       style="fill:none;stroke:#000000;stroke-width:0.264583px;stroke-linecap:butt;stroke-linejoin:miter;stroke-opacity:1"
       d="m 127.45975,61.825578 -0.76356,1.623213 1.59419,0.07386"
       id="path20131" />
    <path
       style="fill:none;stroke:url(#linearGradient21967);stroke-width:0.264583px;stroke-linecap:butt;stroke-linejoin:miter;stroke-opacity:1"
       d="m 136.44887,79.845214 c -2.99355,-0.383376 -5.9874,-0.766791 -7.6729,-2.566034 -1.68549,-1.799244 -2.06236,-5.014439 -2.43927,-8.229993"
       id="path20613"
       inkscape:path-effect="#path-effect20615"
       inkscape:original-d="m 136.44887,79.845214 c -2.99358,-0.383149 -5.98743,-0.766564 -8.98154,-1.150242 -0.37662,-3.215063 -0.75349,-6.430258 -1.13063,-9.645785" />
    <path
       style="fill:none;fill-opacity:1;stroke:url(#linearGradient28300);stroke-width:0.264583px;stroke-linecap:butt;stroke-linejoin:miter;stroke-opacity:1"
       d="m 139.63188,76.942896 c 1.55237,-6.333631 3.10479,-12.667449 1.33125,-16.136848 -1.77354,-3.469399 -6.87319,-4.074198 -11.97322,-4.679042"
       id="path20617"
       inkscape:path-effect="#path-effect20619"
       inkscape:original-d="m 139.63188,76.942896 c 1.55268,-6.333556 3.1051,-12.667374 4.65726,-19.001459 -5.09958,-0.604557 -10.19923,-1.209355 -15.29923,-1.814431"
       inkscape:highlight-color="#e680ee" />
    <path
       style="fill:none;stroke:#000000;stroke-width:0.264583px;stroke-linecap:butt;stroke-linejoin:miter;stroke-opacity:1"
       d="m 130.10339,55.505926 -1.01611,0.677177 0.81213,0.822304"
       id="path20621" />
    <path
       style="fill:none;stroke:#000000;stroke-width:0.265;stroke-linecap:butt;stroke-linejoin:miter;stroke-dasharray:none;stroke-opacity:1"
       d="m 125.56581,70.241159 0.81757,-1.1147 1.07903,1.250206"
       id="path20623" />
    <text
       xml:space="preserve"
       transform="scale(0.26458333)"
       id="text29050"
       style="font-size:37.3333px;font-family:Yrsa;-inkscape-font-specification:Yrsa;white-space:pre;shape-inside:url(#rect29052);display:inline;fill:#000000;fill-opacity:0.996416;stroke:#000000;stroke-width:1.00157;stroke-dasharray:none;stroke-opacity:1" />
    <text
       xml:space="preserve"
       transform="scale(0.26458333)"
       id="text29222"
       style="font-size:37.3333px;font-family:Yrsa;-inkscape-font-specification:Yrsa;white-space:pre;shape-inside:url(#rect29224);display:inline;fill:#000000;fill-opacity:0.996416;stroke:#000000;stroke-width:1.00157;stroke-dasharray:none;stroke-opacity:1" />
    <text
       xml:space="preserve"
       style="font-size:6.35px;font-family:Yrsa;-inkscape-font-specification:Yrsa;fill:#000000;fill-opacity:0.996416;stroke:#000000;stroke-width:0.264999;stroke-dasharray:none;stroke-opacity:1"
       x="21.417936"
       y="53.99366"
       id="text29230"><tspan
         sodipodi:role="line"
         id="tspan29232"
         x="21.417936"
         y="53.99366"
         style="font-style:normal;font-variant:normal;font-weight:normal;font-stretch:normal;font-size:6.35px;font-family:sans-serif;-inkscape-font-specification:sans-serif" /></text>
    <text
       xml:space="preserve"
       style="font-style:normal;font-variant:normal;font-weight:normal;font-stretch:normal;font-size:6.35px;font-family:sans-serif;-inkscape-font-specification:sans-serif;fill:none;fill-opacity:0.996416;stroke:#000000;stroke-width:0.264999;stroke-dasharray:none;stroke-opacity:1"
       x="20.716263"
       y="50.217178"
       id="text29236"><tspan
         sodipodi:role="line"
         id="tspan29234"
         style="fill:none;stroke-width:0.265"
         x="20.716263"
         y="50.217178" /></text>
    <text
       xml:space="preserve"
       style="font-style:normal;font-variant:normal;font-weight:normal;font-stretch:normal;font-size:6.35px;font-family:sans-serif;-inkscape-font-specification:sans-serif;fill:#000000;fill-opacity:0.996416;stroke:#000000;stroke-width:0.264999;stroke-dasharray:none;stroke-opacity:1"
       x="21.154377"
       y="45.848618"
       id="text29720"><tspan
         sodipodi:role="line"
         id="tspan29718"
         style="fill:#000000;stroke-width:0.265"
         x="21.154377"
         y="45.848618" /></text>
    <path
       style="fill:none;stroke:#000000;stroke-width:0.264583px;stroke-linecap:butt;stroke-linejoin:miter;stroke-opacity:1"
       d="M 30.427083,29.104166 H 39.6875"
       id="path29732" />
    <path
       style="fill:none;stroke:#000000;stroke-width:0.347522px;stroke-linecap:butt;stroke-linejoin:miter;stroke-opacity:1"
       d="m 32.961165,27.818499 -2.437091,1.238895 2.437091,1.238896"
       id="path29738" />
    <path
       style="fill:none;stroke:#000000;stroke-width:0.33405px;stroke-linecap:butt;stroke-linejoin:miter;stroke-opacity:1"
       d="m 75.718243,28.07554 2.238167,1.246438 -2.238167,1.246439"
       id="path29738-9" />
    <path
       style="fill:none;stroke:#000000;stroke-width:0.264583px;stroke-linecap:butt;stroke-linejoin:miter;stroke-opacity:1"
       d="m 66.145833,29.236458 h 11.90625"
       id="path29740" />
    <path
       style="fill:none;stroke:#000000;stroke-width:0.244956px;stroke-linecap:butt;stroke-linejoin:miter;stroke-opacity:1"
       d="m 79.375,29.104166 h 7.9375"
       id="path29732-8" />
    <path
       style="fill:none;stroke:#000000;stroke-width:0.363097px;stroke-linecap:butt;stroke-linejoin:miter;stroke-opacity:1"
       d="m 81.945913,27.827588 -2.708403,1.21695 2.708403,1.21695"
       id="path29738-4" />
    <path
       style="fill:none;stroke:#000000;stroke-width:0.34642px;stroke-linecap:butt;stroke-linejoin:miter;stroke-opacity:1"
       d="m 115.09375,38.364584 h 15.875"
       id="path29732-8-8" />
    <path
       style="fill:none;stroke:#000000;stroke-width:0.264583px;stroke-linecap:butt;stroke-linejoin:miter;stroke-opacity:1"
       d="m 117.73958,37.041666 -2.64583,1.322917 2.64583,1.322917"
       id="path29850" />
    <path
       style="fill:none;stroke:#000000;stroke-width:0.347467px;stroke-linecap:butt;stroke-linejoin:miter;stroke-opacity:1"
       d="m 153.57273,104.54723 2.43543,1.23933 -2.43543,1.23934"
       id="path29852" />
    <path
       style="fill:none;stroke:#000000;stroke-width:0.325617px;stroke-linecap:butt;stroke-linejoin:miter;stroke-opacity:1"
       d="m 121.70833,28.684403 h 12.02194"
       id="path29854" />
    <path
       style="fill:none;stroke:#000000;stroke-width:0.264583px;stroke-linecap:butt;stroke-linejoin:miter;stroke-opacity:1"
       d="m 131.25209,104.27451 -0.89845,1.58515 -0.89021,-1.71885"
       id="path29858" />
    <path
       style="fill:none;stroke:#000000;stroke-width:0.265;stroke-linecap:butt;stroke-linejoin:miter;stroke-dasharray:none;stroke-opacity:1"
       d="m 30.427681,53.229605 -1.512308,1.204446 1.580945,1.232775"
       id="path29860" />
    <path
       style="display:inline;fill:none;stroke:#000000;stroke-width:0.308852px;stroke-linecap:butt;stroke-linejoin:miter;stroke-opacity:1"
       d="m 81.409653,86.717461 -2.233256,1.067833 2.233256,1.067833"
       id="path29738-4-0" />
    <path
       style="display:inline;fill:none;stroke:#000000;stroke-width:0.27283px;stroke-linecap:butt;stroke-linejoin:miter;stroke-opacity:1"
       d="m 113.0573,86.728157 1.73523,1.072438 -1.73523,1.072438"
       id="path29738-4-3" />
    <path
       style="display:inline;fill:none;stroke:#000000;stroke-width:0.264583px;stroke-linecap:butt;stroke-linejoin:miter;stroke-opacity:1"
       d="m 87.380878,87.926597 -8.211212,-0.03491"
       id="path31868" />
    <path
       style="display:inline;fill:none;stroke:#000000;stroke-width:0.264583px;stroke-linecap:butt;stroke-linejoin:miter;stroke-opacity:1"
       d="m 107.37896,87.857353 7.28315,-0.07285"
       id="path31870" />
  </g>
</svg>
